<svg xmlns="http://www.w3.org/2000/svg" xmlns:xlink="http://www.w3.org/1999/xlink" viewBox="0 0 20.85 31.27"><defs><style>.cls-1{fill:none;}.cls-2{fill:#ffcc4d;}.cls-3{fill:#f4900c;}.cls-4{fill:#da2f47;}.cls-5{fill:#ea596e;}.cls-6{clip-path:url(#clip-path);}.cls-7{opacity:0.29;}.cls-8{fill:#9d0522;}.cls-9{fill:#ccd6dd;}.cls-10{fill:#f4abba;}.cls-11{fill:#664500;}</style><clipPath id="clip-path"><rect class="cls-1" x="5.15" y="5.41" width="8.77" height="4.33"/></clipPath></defs><title>amazed</title><g id="Layer_2" data-name="Layer 2"><g id="Layer_1-2" data-name="Layer 1"><path class="cls-2" d="M20.85,20.85A10.43,10.43,0,1,1,10.42,10.42,10.43,10.43,0,0,1,20.85,20.85"/><path class="cls-3" d="M14,14.15c0,.73-1.6,1.31-3.58,1.31s-3.57-.58-3.57-1.31,1.6-1.29,3.57-1.29S14,13.44,14,14.15M6.52,10.24c.33-.38,1.42.06,1.73.4s4.05.78,3.91.29c-.43-1.52.87-2.23,1.1-1.73.12.28-.17,1.36,0,1.46.38.27.82-.19,1.12,0,.53.29-.35,1.6-.35,1.6l-7,.62s-.86-2.23-.51-2.62"/><path class="cls-4" d="M13.83,6c-.49,1.51-1.67,6.2-.49,8.19-.49.76-1.46,1-2.92,1V5.21M7,6c.49,1.51,1.67,6.2.49,8.19.48.76,1.45,1,2.91,1V5.21"/><path class="cls-5" d="M7.82,3.91A2.18,2.18,0,1,1,5.65,1.74,2.17,2.17,0,0,1,7.82,3.91"/><path class="cls-5" d="M12.16,3a1.31,1.31,0,1,1-1.3-1.3A1.3,1.3,0,0,1,12.16,3M6.08,5.64A2.17,2.17,0,1,1,3.91,3.47,2.17,2.17,0,0,1,6.08,5.64"/><g class="cls-6"><g class="cls-7"><path class="cls-8" d="M13.81,6.26c0-.07.06-.22.11-.29l-2.39-.56c-.06,0-6.14.7-6.3.74s0-.54,0-.54S6.31,7.72,7.44,8.07a4,4,0,0,1,.43,1.68,2.08,2.08,0,0,0,1.38-.56,1.39,1.39,0,0,0,1.57-.07,2.43,2.43,0,0,0,2.32-.31,9.22,9.22,0,0,1,.67-2.55"/></g></g><path class="cls-9" d="M10.42,4.78A2.17,2.17,0,1,1,8.25,2.61a2.17,2.17,0,0,1,2.17,2.17"/><path class="cls-5" d="M10.42,2.17A2.17,2.17,0,1,1,8.25,0a2.17,2.17,0,0,1,2.17,2.17"/><path class="cls-5" d="M10.53,5.86a2.82,2.82,0,0,1-5.63,0h0a2.82,2.82,0,1,1,5.63,0"/><path class="cls-5" d="M13.9,5.64a2.17,2.17,0,1,1-2.17-2.17A2.17,2.17,0,0,1,13.9,5.64"/><path class="cls-5" d="M17.37,4.78A2.17,2.17,0,1,1,15.2,2.61a2.17,2.17,0,0,1,2.17,2.17"/><path class="cls-5" d="M15.63,3.91a2.17,2.17,0,1,1-2.17-2.17,2.17,2.17,0,0,1,2.17,2.17m3.48,1.3a1.74,1.74,0,1,1-3.47.08V5.21a1.74,1.74,0,0,1,3.47,0"/><path class="cls-10" d="M8.69,4.78A2.18,2.18,0,1,1,6.52,2.61,2.18,2.18,0,0,1,8.69,4.78"/><path class="cls-10" d="M10.42,3a1.31,1.31,0,1,1-1.3-1.3A1.3,1.3,0,0,1,10.42,3"/><path class="cls-10" d="M5.07,5.33A1.17,1.17,0,1,1,3.9,4.16,1.16,1.16,0,0,1,5.07,5.33m3.51.93A1.31,1.31,0,1,1,7.27,5a1.31,1.31,0,0,1,1.31,1.3m3.58-1.48a1.31,1.31,0,1,1-1.3-1.31,1.3,1.3,0,0,1,1.3,1.31"/><path class="cls-10" d="M16.5,4.78a1.3,1.3,0,1,1-1.3-1.31,1.3,1.3,0,0,1,1.3,1.31m-6,.63a1.31,1.31,0,0,1-1.31,1.3,1.3,1.3,0,1,1,1.3-1.3"/><path class="cls-2" d="M7,12.63c-.17-.39,0-1.34.48-1s.2,1.19.75,1.19.7-1.25,1.31-1.28.91,1.26,1.3,1.15.28-.64.73-.54.34,1,.79.78.45-1.42.94-1.48.18,1.07.68.77.41.37-.08.75a7.13,7.13,0,0,1-5.2.72C6.31,13.1,7.19,13,7,12.63"/><polygon class="cls-2" points="14.47 15.63 6.29 15.63 6.29 12.86 14.89 13.36 14.47 15.63"/><path class="cls-11" d="M15.63,18.24c0,1-.58,1.73-1.3,1.73S13,19.2,13,18.24s.58-1.74,1.3-1.74,1.3.78,1.3,1.74m-7.81,0c0,1-.59,1.73-1.3,1.73a1.56,1.56,0,0,1-1.31-1.73c0-1,.59-1.74,1.31-1.74s1.3.78,1.3,1.74"/><path class="cls-11" d="M13.46,25.43a3.27,3.27,0,0,1-3,3.47,3.27,3.27,0,0,1-3-3.47,3.28,3.28,0,0,1,3-3.48,3.28,3.28,0,0,1,3,3.48"/></g></g></svg>