<svg xmlns="http://www.w3.org/2000/svg" viewBox="0 0 31.27 31.27"><defs><style>.cls-1{fill:#ffcc4d;}.cls-2{fill:#664500;}</style></defs><title>angry</title><g id="Layer_2" data-name="Layer 2"><g id="Layer_1-2" data-name="Layer 1"><path class="cls-1" d="M31.27,15.63A15.64,15.64,0,1,1,15.63,0,15.64,15.64,0,0,1,31.27,15.63"/><path class="cls-2" d="M25.18,12.16c-.19,0-4.73,0-7.56,2.86a.89.89,0,0,0,0,1.23.9.9,0,0,0,.62.25h0c0,.14,0,.29,0,.44,0,1.67,1,3,2.17,3s2.17-1.36,2.17-3a3.56,3.56,0,0,0-.85-2.4,12.36,12.36,0,0,1,3.46-.65.87.87,0,1,0,0-1.73h0M13.65,15c-2.83-2.83-7.38-2.86-7.57-2.86a.87.87,0,1,0,0,1.73h0a12.36,12.36,0,0,1,3.46.65,3.51,3.51,0,0,0-.85,2.4c0,1.67,1,3,2.16,3s2.18-1.36,2.18-3c0-.15,0-.3,0-.44h0a.87.87,0,0,0,.87-.86.91.91,0,0,0-.25-.62M22.13,26c0-.16-1-3.81-6.5-3.81S9.17,25.79,9.13,26a.44.44,0,0,0,.31.53.49.49,0,0,0,.42-.11s1.7-1.62,5.77-1.62,5.76,1.6,5.78,1.62a.44.44,0,0,0,.52.06.44.44,0,0,0,.21-.48"/></g></g></svg>