<svg xmlns="http://www.w3.org/2000/svg" viewBox="0 0 31.26 31.27"><defs><style>.cls-1{fill:#ffcc4d;}.cls-2{fill:#664500;}.cls-3{fill:#5dadec;}.cls-4{fill:#e75a70;}</style></defs><title>crying</title><g id="Layer_2" data-name="Layer 2"><g id="Layer_1-2" data-name="Layer 1"><path class="cls-1" d="M31.26,15.63A15.63,15.63,0,1,1,15.64,0,15.63,15.63,0,0,1,31.26,15.63"/><path class="cls-2" d="M5.21,13a.87.87,0,0,1-.32-1.68,13,13,0,0,0,5.68-4,.87.87,0,0,1,1.2-.24A.86.86,0,0,1,12,8.29,14.32,14.32,0,0,1,5.53,13a.88.88,0,0,1-.32.07m20.85,0a.93.93,0,0,1-.33-.07,14.32,14.32,0,0,1-6.48-4.67.86.86,0,0,1,.26-1.19.87.87,0,0,1,1.19.23,12.88,12.88,0,0,0,5.68,4A.87.87,0,0,1,26.06,13M19.11,23.45c0,2.4-1.56,2.6-3.47,2.6s-3.48-.2-3.48-2.6,1.55-5.21,3.48-5.21,3.47,2.81,3.47,5.21"/><path class="cls-3" d="M20.84,13.89h3.48V30.4l-3.48,0ZM7,30.4l3.47,0V13.9H7Z"/><path class="cls-2" d="M25.18,15.63a.88.88,0,0,1-.38-.09,7.55,7.55,0,0,0-6.17,0,.88.88,0,0,1-1.17-.38A.89.89,0,0,1,17.85,14a9.29,9.29,0,0,1,7.72,0A.87.87,0,0,1,26,15.15a.84.84,0,0,1-.78.48M13,15.63a.88.88,0,0,1-.38-.09,7.55,7.55,0,0,0-6.17,0,.88.88,0,0,1-1.17-.38A.89.89,0,0,1,5.69,14h0a9.31,9.31,0,0,1,7.73,0,.88.88,0,0,1,.38,1.17.84.84,0,0,1-.78.48"/><path class="cls-3" d="M31.26,29.53c0,1-7,1.74-15.62,1.74S0,30.49,0,29.53s7-1.74,15.64-1.74,15.62.78,15.62,1.74"/><path class="cls-4" d="M18.24,23.45c0,1.44-1.17,1.73-2.6,1.73S13,24.89,13,23.45s1.17-1.74,2.62-1.74,2.6.3,2.6,1.74"/></g></g></svg>