<svg xmlns="http://www.w3.org/2000/svg" viewBox="0 0 27.79 31.27"><defs><style>.cls-1{fill:#ccd6dd;}.cls-2{fill:#292f33;}</style></defs><title>dead</title><g id="Layer_2" data-name="Layer 2"><g id="Layer_1-2" data-name="Layer 1"><path class="cls-1" d="M27.79,13.9C27.79,5.21,21.57,0,13.89,0S0,5.21,0,13.9c0,4.84,0,9,5.21,11v3.79a2.61,2.61,0,1,0,5.21,0h0V25.92l.87.06v2.68a2.61,2.61,0,1,0,5.21,0h0V26l.87-.06v2.74a2.61,2.61,0,1,0,5.21,0h0V24.87c5.21-1.95,5.21-6.13,5.21-11"/><path class="cls-2" d="M15.55,20a1.75,1.75,0,0,0-1.66-.92,1.74,1.74,0,0,0-1.65.92,1.3,1.3,0,0,0,.35,2.55,1.31,1.31,0,0,0,1.23-.87H14a1.31,1.31,0,0,0,1.65.8A1.3,1.3,0,0,0,15.55,20m8.77-7.87c0,2.4,0,4.34-4.35,4.34s-4.34-1.94-4.34-4.34a4.35,4.35,0,1,1,8.69,0m-12.16,0c0,2.4,0,4.34-4.35,4.34s-4.34-1.94-4.34-4.34a4.35,4.35,0,1,1,8.69,0"/></g></g></svg>