<svg xmlns="http://www.w3.org/2000/svg" viewBox="0 0 31.27 31.27"><defs><style>.cls-1{fill:#ffcc4d;}.cls-2{fill:#ff7892;}.cls-3{fill:#f5f8fa;}.cls-4{fill:#664500;}</style></defs><title>embarrassed</title><g id="Layer_2" data-name="Layer 2"><g id="Layer_1-2" data-name="Layer 1"><path class="cls-1" d="M31.27,15.63A15.64,15.64,0,1,1,15.64,0,15.63,15.63,0,0,1,31.27,15.63"/><path class="cls-2" d="M10.42,20a4.34,4.34,0,1,1-8.68,0h0a4.34,4.34,0,0,1,8.68,0m19.11,0a4.34,4.34,0,1,1-8.68,0h0a4.34,4.34,0,0,1,8.68,0"/><path class="cls-3" d="M14.76,14.33A4.78,4.78,0,1,1,10,9.55a4.77,4.77,0,0,1,4.77,4.78h0m11.3,0a4.78,4.78,0,1,1-4.78-4.78,4.79,4.79,0,0,1,4.78,4.78"/><path class="cls-4" d="M5.21,9.55a.87.87,0,0,1-.87-.86.94.94,0,0,1,.18-.53,9.06,9.06,0,0,1,6.77-3.82.87.87,0,0,1,0,1.74A7.29,7.29,0,0,0,5.91,9.21a.9.9,0,0,1-.7.34m20.85,0a.85.85,0,0,1-.7-.34A7.31,7.31,0,0,0,20,6.08a.87.87,0,0,1,0-1.74,9.08,9.08,0,0,1,6.77,3.82.87.87,0,0,1-.17,1.22.9.9,0,0,1-.52.17m-6.95,16.5H12.16a.87.87,0,1,1,0-1.73h7a.87.87,0,1,1,0,1.73m4.34-11.72a2.17,2.17,0,1,1-2.17-2.17,2.17,2.17,0,0,1,2.17,2.17m-11.29,0A2.17,2.17,0,1,1,10,12.16a2.17,2.17,0,0,1,2.17,2.17"/></g></g></svg>