<svg xmlns="http://www.w3.org/2000/svg" viewBox="0 0 31.27 31.27"><defs><style>.cls-1{fill:#ffcc4d;}.cls-2{fill:#664500;}</style></defs><title>existential</title><g id="Layer_2" data-name="Layer 2"><g id="Layer_1-2" data-name="Layer 1"><path class="cls-1" d="M31.27,15.63A15.64,15.64,0,1,1,15.64,0,15.63,15.63,0,0,1,31.27,15.63"/><path class="cls-2" d="M21.71,22.58H9.55a.87.87,0,0,1,0-1.73H21.71a.87.87,0,1,1,0,1.73m1.74-8.25c0,1.68-1,3-2.17,3s-2.17-1.36-2.17-3,1-3,2.17-3,2.17,1.36,2.17,3m-11.29,0c0,1.68-1,3-2.17,3s-2.17-1.36-2.17-3,1-3,2.17-3,2.17,1.36,2.17,3"/></g></g></svg>