<svg xmlns="http://www.w3.org/2000/svg" viewBox="0 0 31.27 31.27"><defs><style>.cls-1{fill:#ffcc4d;}.cls-2{fill:#664500;}.cls-3{fill:#fff;}</style></defs><title>happy</title><g id="Layer_2" data-name="Layer 2"><g id="Layer_1-2" data-name="Layer 1"><path class="cls-1" d="M31.27,15.63A15.64,15.64,0,1,1,15.63,0,15.64,15.64,0,0,1,31.27,15.63"/><path class="cls-2" d="M15.63,19.11a36.85,36.85,0,0,1-7.81-.87c-.59-.11-1.74,0-1.74,1.73,0,3.48,4,7.82,9.55,7.82s9.56-4.34,9.56-7.82c0-1.73-1.15-1.85-1.74-1.73a36.87,36.87,0,0,1-7.82.87m6.95-3.48a.87.87,0,0,1-.82-.59c-.18-.52-.89-2-1.78-2s-1.65,1.58-1.79,2a.86.86,0,0,1-1.09.55h0a.87.87,0,0,1-.55-1.1h0c.1-.33,1.13-3.2,3.43-3.2s3.32,2.87,3.42,3.2a.85.85,0,0,1-.82,1.14m-8.68,0a.87.87,0,0,1-.83-.59c-.17-.52-.88-2-1.78-2s-1.64,1.58-1.78,2a.87.87,0,0,1-1.1.55h0a.88.88,0,0,1-.55-1.1h0c.11-.33,1.13-3.2,3.43-3.2s3.32,2.87,3.43,3.2a.87.87,0,0,1-.55,1.1.8.8,0,0,1-.27,0"/><path class="cls-3" d="M7.82,20a26.86,26.86,0,0,0,7.81.88A26.9,26.9,0,0,0,23.45,20a7.67,7.67,0,0,1-7.82,5.87A7.66,7.66,0,0,1,7.82,20"/><path class="cls-2" d="M15.63,24a32.62,32.62,0,0,1-6.89-.65L8,21.69a27.69,27.69,0,0,0,7.61.78,27,27,0,0,0,7.7-.81l-.61,1.6a32,32,0,0,1-7.09.71"/></g></g></svg>