<svg xmlns="http://www.w3.org/2000/svg" viewBox="0 0 31.27 31.27"><defs><style>.cls-1{fill:#ffcc4d;}.cls-2{fill:#f5f8fa;}.cls-3{fill:#664500;}</style></defs><title>over_it</title><g id="Layer_2" data-name="Layer 2"><g id="Layer_1-2" data-name="Layer 1"><path class="cls-1" d="M31.27,15.63A15.64,15.64,0,1,1,15.64,0,15.63,15.63,0,0,1,31.27,15.63"/><path class="cls-2" d="M14.76,11.72A4.78,4.78,0,1,1,10,7a4.77,4.77,0,0,1,4.77,4.77h0m11.3,0A4.78,4.78,0,1,1,21.28,7a4.78,4.78,0,0,1,4.78,4.77"/><path class="cls-3" d="M20,23.45H11.29a.87.87,0,1,1,0-1.74H20a.87.87,0,0,1,0,1.74M23.45,9.12A2.17,2.17,0,1,1,21.28,7a2.17,2.17,0,0,1,2.17,2.17m-11.29,0A2.17,2.17,0,1,1,10,7a2.17,2.17,0,0,1,2.17,2.17"/></g></g></svg>