<svg xmlns="http://www.w3.org/2000/svg" viewBox="0 0 31.27 31.27"><defs><style>.cls-1{fill:#ffcc4d;}.cls-2{fill:#292f33;fill-rule:evenodd;}.cls-3{fill:#664500;}</style></defs><title>rad</title><g id="Layer_2" data-name="Layer 2"><g id="Layer_1-2" data-name="Layer 1"><path class="cls-1" d="M31.27,15.63A15.64,15.64,0,1,1,15.63,0,15.64,15.64,0,0,1,31.27,15.63"/><path class="cls-2" d="M1.08,9.57c.2.21,1.24.83,1.45,1.45s.63,4.16,1.88,5.19,6.14.68,7.07.22c2.08-1,2.34-3.94,2.71-5.41.21-.83,1.46-.83,1.46-.83s1.25,0,1.45.83c.37,1.47.63,4.37,2.71,5.41.93.46,5.79.86,7.08-.21s1.66-4.57,1.87-5.2S30,9.78,30.22,9.57a1.32,1.32,0,0,0,0-1.25c-.42-.41-5.33-.78-10.62-.21a18,18,0,0,1-4,.42,18.16,18.16,0,0,1-4-.42c-5.28-.57-10.2-.2-10.61.21a1.32,1.32,0,0,0,0,1.25"/><path class="cls-3" d="M23.74,20.52a.42.42,0,0,0-.55,0A14.18,14.18,0,0,1,15.63,23,14.26,14.26,0,0,1,8.07,20.5a.43.43,0,0,0-.59-.16.44.44,0,0,0-.15.6.43.43,0,0,0,.11.12,10,10,0,0,0,8.19,4.56,10,10,0,0,0,8.19-4.55.44.44,0,0,0-.08-.55"/></g></g></svg>