<svg xmlns="http://www.w3.org/2000/svg" xmlns:xlink="http://www.w3.org/1999/xlink" viewBox="0 0 31.27 30.4"><defs><style>.cls-1{fill:none;}.cls-2{fill:#f4900c;}.cls-3{fill:#ffac33;}.cls-4{fill:#ffcc4d;}.cls-5{fill:#269;}.cls-6{fill:#55acee;}.cls-7{fill:#3b88c3;}.cls-8{fill:#fff;}.cls-9{fill:#dd2e44;}.cls-10{fill:#f5f8fa;}.cls-11{fill:#ccd6dd;}.cls-12{clip-path:url(#clip-path);}</style><clipPath id="clip-path"><path class="cls-1" d="M8.25,20a2.17,2.17,0,0,0,0,4.34H23A2.17,2.17,0,1,0,23,20Z"/></clipPath></defs><title>robot</title><g id="Layer_2" data-name="Layer 2"><g id="Layer_1-2" data-name="Layer 1"><path class="cls-2" d="M4.34,12.59c0,1.68-1,3-2.17,3S0,14.27,0,12.59s1-3,2.17-3,2.17,1.36,2.17,3m26.93,0c0,1.68-1,3-2.18,3s-2.17-1.36-2.17-3,1-3,2.17-3,2.18,1.36,2.18,3"/><path class="cls-3" d="M6.08,16.5a.87.87,0,0,1-.87.87H2.6a.86.86,0,0,1-.86-.87h0V8.69a.86.86,0,0,1,.86-.88H5.21a.87.87,0,0,1,.87.88Zm23.45,0a.87.87,0,0,1-.87.87h-2.6a.86.86,0,0,1-.87-.87h0V8.69a.87.87,0,0,1,.87-.88h2.6a.87.87,0,0,1,.87.88Z"/><path class="cls-4" d="M24.32,4.34c0,2.4-3.89,3.47-8.69,3.47S7,6.74,7,4.34,10.84,0,15.63,0s8.69,1.94,8.69,4.34"/><path class="cls-2" d="M21.71,3.55c0,1.4-2.72,2.53-6.08,2.53S9.55,5,9.55,3.55,12.27,1,15.63,1s6.08,1.13,6.08,2.54"/><path class="cls-5" d="M26.06,4.78c0,1.19-1,1.3-2.18,1.3H7.38c-1.2,0-2.17-.11-2.17-1.3A2.17,2.17,0,0,1,7.38,2.61h16.5a2.18,2.18,0,0,1,2.18,2.17h0"/><path class="cls-6" d="M27.79,26.05a1.73,1.73,0,0,1-1.73,1.74H5.21a1.73,1.73,0,0,1-1.74-1.74h0V7A1.74,1.74,0,0,1,5.21,5.21H26.06A1.73,1.73,0,0,1,27.79,7Z"/><path class="cls-7" d="M30.4,28.66c0,1,.09,1.74-.87,1.74H1.74c-1,0-.87-.78-.87-1.74v-.87A1.73,1.73,0,0,1,2.6,26.05H28.66a1.74,1.74,0,0,1,1.74,1.74Z"/><path class="cls-6" d="M16.25,29A.87.87,0,0,1,15,29h0L10.1,24.06a.88.88,0,0,1,0-1.22L15,18.79a.87.87,0,0,1,1.23,0l4.91,4.05a.86.86,0,0,1,0,1.22h0Z"/><path class="cls-8" d="M25.19,12.59a3.91,3.91,0,1,1-3.91-3.9,3.92,3.92,0,0,1,3.91,3.9m-11.29,0A3.91,3.91,0,1,1,10,8.69a3.91,3.91,0,0,1,3.91,3.9"/><path class="cls-9" d="M11.29,14.76a.87.87,0,0,1-.87.87H9.55a.86.86,0,0,1-.86-.87h0V10.42a.86.86,0,0,1,.86-.87h.87a.87.87,0,0,1,.87.87Zm11.29,0a.87.87,0,0,1-.87.87h-.87a.87.87,0,0,1-.87-.87h0V10.42a.87.87,0,0,1,.87-.87h.87a.87.87,0,0,1,.87.87Z"/><path class="cls-10" d="M25.19,22.15A2.17,2.17,0,0,1,23,24.32H8.25a2.18,2.18,0,0,1,0-4.35H23a2.18,2.18,0,0,1,2.17,2.18h0"/><path class="cls-11" d="M20.84,24.32H19.11V20h1.73Zm-8.68,0H10.42V20h1.74Zm4.34,0H14.76V20H16.5Z"/><g class="cls-12"><path class="cls-11" d="M25.19,24.32H23.45V20h1.74Zm-17.37,0H6.08V20H7.82Z"/></g></g></g></svg>