<svg xmlns="http://www.w3.org/2000/svg" xmlns:xlink="http://www.w3.org/1999/xlink" viewBox="0 0 31.27 31.27"><defs><style>.cls-1{fill:none;}.cls-2{clip-path:url(#clip-path);}.cls-3{fill:#ffcc4d;}.cls-4{fill:#bdddf4;}.cls-5{fill:#f5f8fa;}.cls-6{fill:#664500;}.cls-7{fill:#fcab40;}</style><clipPath id="clip-path"><rect class="cls-1" width="31.27" height="31.27"/></clipPath></defs><title>scared</title><g id="Layer_2" data-name="Layer 2"><g id="Layer_1-2" data-name="Layer 1"><g class="cls-2"><path class="cls-3" d="M15.64,0A15.62,15.62,0,0,0,6.58,28.36C6.67,22.77,4.64,16.5,1.22,16.5a2.87,2.87,0,0,0-1,.16c.26-.66.83-1,1.9-1,3.71,0,5.79,7.38,5.29,13.27a15.51,15.51,0,0,0,16.45,0c-.5-5.91,1.58-13.28,5.29-13.28,1.07,0,1.64.37,1.91,1a2.93,2.93,0,0,0-1-.16c-3.42,0-5.45,6.25-5.36,11.86A15.62,15.62,0,0,0,15.64,0"/><path class="cls-4" d="M15.64,0A15.63,15.63,0,0,0,0,15.63a15.88,15.88,0,0,0,.3,3,8.89,8.89,0,0,1,.92-2.16,2.87,2.87,0,0,0-1,.16,1.64,1.64,0,0,1,1.54-1C4.35,12,9.58,9.55,15.64,9.55S26.91,12,29.51,15.67a1.66,1.66,0,0,1,1.55,1,2.93,2.93,0,0,0-1-.16A8.89,8.89,0,0,1,31,18.66a15.88,15.88,0,0,0,.3-3A15.63,15.63,0,0,0,15.64,0"/><path class="cls-5" d="M24.89,10.34c.82,2.76-.1,5.47-2.05,6.05s-4.2-1.19-5-3.94.1-5.46,2-6,4.2,1.18,5,3.94m-18.51,0c-.82,2.76.09,5.47,2,6.05s4.2-1.19,5-3.94-.1-5.46-2-6-4.21,1.18-5,3.94"/><path class="cls-6" d="M15.64,15.63A4.35,4.35,0,0,0,11.29,20v5.21a4.35,4.35,0,1,0,8.69,0V20a4.35,4.35,0,0,0-4.34-4.34"/><path class="cls-7" d="M31.06,16.66a2.93,2.93,0,0,0-1-.16c-4,0-6.14,8.68-5.1,14.77h5.61C28.91,25.15,32,19,31.06,16.66M1.22,16.5a2.87,2.87,0,0,0-1,.16,1.33,1.33,0,0,1,.25-.41c-1.62,2,2,8.54.24,15H6.33c1-6.05-1.08-14.77-5.11-14.77"/></g></g></g></svg>