<svg xmlns="http://www.w3.org/2000/svg" xmlns:xlink="http://www.w3.org/1999/xlink" viewBox="0 0 31.27 31.27"><defs><style>.cls-1{fill:none;}.cls-2{fill:#ffcc4d;}.cls-3{fill:#664500;}.cls-4{clip-path:url(#clip-path);}.cls-5{fill:#ccd6dd;}.cls-6{fill:#da2f47;}.cls-7{fill:#67757f;}</style><clipPath id="clip-path"><path class="cls-1" d="M11.37,25.26s.16-.12.49-.37a3.12,3.12,0,0,0-.49.37m.49-.37A7.31,7.31,0,0,1,15.74,24c3.12,0,4.32,1.25,4.32,1.25l11.21-8.29V13.46l-1.74-2.17S14.76,22.67,11.86,24.89"/></clipPath></defs><title>sick</title><g id="Layer_2" data-name="Layer 2"><g id="Layer_1-2" data-name="Layer 1"><path class="cls-2" d="M31.27,15.63A15.64,15.64,0,1,1,15.63,0,15.64,15.64,0,0,1,31.27,15.63"/><path class="cls-3" d="M6.08,10.41a.87.87,0,1,1,0-1.73c4.41,0,5.21-2.71,5.24-2.83a.88.88,0,0,1,1.06-.61.86.86,0,0,1,.62,1c0,.17-1.1,4.12-6.92,4.12m19.11,0a7.73,7.73,0,0,1-6.86-3.95.87.87,0,1,1,1.55-.78h0a6,6,0,0,0,5.31,3,.87.87,0,1,1,0,1.73M20.4,25.52s-1-2.5-4.77-2.5-4.75,2.46-4.76,2.5a.42.42,0,0,0,.2.47.47.47,0,0,0,.52,0s.88-.75,4-.75,4,.72,4,.75a.44.44,0,0,0,.61,0,.45.45,0,0,0,.11-.4m2.18-11.19c0,1.68-1,3-2.17,3s-2.17-1.36-2.17-3,1-3,2.17-3,2.17,1.36,2.17,3m-9.55,0c0,1.68-1,3-2.18,3s-2.16-1.36-2.16-3,1-3,2.16-3,2.18,1.36,2.18,3"/><g class="cls-4"><path class="cls-5" d="M10.53,26.14l17.21-12.9a2.15,2.15,0,0,1,3,.53,2.17,2.17,0,0,1-.42,2.94L16.73,26.92l-6.19-.78Z"/><path class="cls-6" d="M14,27.7a1.17,1.17,0,0,1-1.4-1.87l11.06-8.3c.51-.39.81.09,1.2.61s.72.87.2,1.27Z"/><path class="cls-7" d="M25.68,14.79l1.07,1.39.64-.52-1-1.38Zm-1.86,1.4,1.07,1.39.64-.52-1-1.37Zm-1.94,1.43L23,19l.64-.52-1-1.38ZM20,19.06l1.07,1.39.65-.52-1-1.37Zm-1.9,1.41,1.08,1.38.64-.51-1-1.38Zm-1.93,1.44,1.08,1.39.64-.52-1-1.38-.68.51Z"/></g></g></g></svg>