<svg xmlns="http://www.w3.org/2000/svg" viewBox="0 0 31.27 31.27"><defs><style>.cls-1{fill:#ffcc4d;}.cls-2{fill:#664500;}.cls-3{fill:#f5f8fa;}.cls-4{fill:#292f33;}.cls-5{fill:#e75a70;}</style></defs><title>silly</title><g id="Layer_2" data-name="Layer 2"><g id="Layer_1-2" data-name="Layer 1"><path class="cls-1" d="M31.27,15.63A15.64,15.64,0,1,1,15.63,0,15.64,15.64,0,0,1,31.27,15.63"/><path class="cls-2" d="M13.42,13.74c-.05-.12-1.3-2.87-3.87-2.87s-3.82,2.75-3.87,2.87a.43.43,0,0,0,.22.57.42.42,0,0,0,.44-.05,5.76,5.76,0,0,1,3.21-.78,5.79,5.79,0,0,1,3.22.78.43.43,0,0,0,.6-.08.42.42,0,0,0,.05-.44"/><path class="cls-3" d="M26.92,11.72a5.65,5.65,0,1,1-5.64-5.64,5.65,5.65,0,0,1,5.64,5.64"/><path class="cls-4" d="M23.45,11.72a2.17,2.17,0,1,1-2.17-2.17,2.17,2.17,0,0,1,2.17,2.17"/><path class="cls-2" d="M6.08,18.47c0,3.44,4,7.81,9.55,7.81s9.56-4.34,9.56-7.81a43.5,43.5,0,0,1-19.11,0"/><path class="cls-5" d="M10.42,20v6a5,5,0,0,0,5.21,5.21A5,5,0,0,0,20.84,26V20a27,27,0,0,1-10.42,0"/></g></g></svg>