<svg xmlns="http://www.w3.org/2000/svg" viewBox="0 0 31.26 31.27"><defs><style>.cls-1{fill:#ffcc4d;}.cls-2{fill:#664500;}</style></defs><title>skeptical</title><g id="Layer_2" data-name="Layer 2"><g id="Layer_1-2" data-name="Layer 1"><path class="cls-1" d="M31.26,15.63A15.63,15.63,0,1,1,15.64,0,15.63,15.63,0,0,1,31.26,15.63"/><path class="cls-2" d="M26.06,9a1.07,1.07,0,0,1-.85-.41,8.79,8.79,0,0,0-4.62-2.85,5,5,0,0,0-2.26,1.36,1.09,1.09,0,0,1-1.52-1.56c.35-.33,2.12-2,3.78-2S25.4,5.39,26.9,7.28a1.08,1.08,0,0,1-.18,1.53,1.06,1.06,0,0,1-.66.23M21.71,22.58H9.55a.87.87,0,1,1,0-1.73H21.71a.87.87,0,1,1,0,1.73M6.17,10.91a.84.84,0,0,0,.77.11,7.34,7.34,0,0,1,6.2.55.86.86,0,0,0,1.21-.21.88.88,0,0,0-.21-1.21A9.08,9.08,0,0,0,6.4,9.37a.87.87,0,0,0-.23,1.54M23,14.33c0,1.68-1,3-2.18,3s-2.17-1.36-2.17-3,1-3,2.17-3,2.18,1.36,2.18,3m-10.43,0a2.29,2.29,0,0,1-2.17,2.39,2.29,2.29,0,0,1-2.17-2.39,2.29,2.29,0,0,1,2.17-2.39,2.29,2.29,0,0,1,2.17,2.39"/></g></g></svg>