<?xml version="1.0" encoding="UTF-8"?>
<svg width="35px" height="24px" viewBox="0 0 35 24" version="1.1" xmlns="http://www.w3.org/2000/svg" xmlns:xlink="http://www.w3.org/1999/xlink">
    <!-- Generator: Sketch 54.1 (76490) - https://sketchapp.com -->
    <title>blue-picks-logo</title>
    <desc>Created with Sketch.</desc>
    <defs>
        <polygon id="path-1" points="1.97206282e-06 0.000291100808 11.1711992 0.000291100808 11.1711992 12.0952386 1.97206282e-06 12.0952386"></polygon>
        <polygon id="path-3" points="5.00000197 -0.999563578 21.748001 -0.999563578 21.748001 17.1333333 5.00000197 17.1333333"></polygon>
        <polygon id="path-5" points="11.000002 -0.999422383 34.2220174 -0.999422383 34.2220174 23 11.000002 23"></polygon>
    </defs>
    <g id="Desktop" stroke="none" stroke-width="1" fill="none" fill-rule="evenodd">
        <g id="02-Photo-Albums" transform="translate(-227.000000, -185.000000)">
            <g id="blue-picks-logo" transform="translate(227.000000, 186.000000)">
                <mask id="mask-2" fill="white">
                    <use xlink:href="#path-1"></use>
                </mask>
                <g id="Clip-2" transform="translate(5.585601, 6.047765) scale(1, -1) translate(-5.585601, -6.047765) "></g>
                <path d="M11.108336,3.14834008 C11.0621383,2.8879213 10.8630836,2.44677986 10.7007076,2.11607479 C10.5428873,1.79462672 10.3229242,1.50636414 10.0474555,1.27756619 C10.0340649,1.26645341 10.0205651,1.25549347 10.006927,1.24471546 C9.50707054,0.849509727 8.93267042,0.595429664 8.3301718,0.40471497 C7.93844472,0.280727858 7.53724959,0.192626199 7.13071276,0.126335267 C6.67674832,0.052301054 6.22016398,0.00975667093 5.76149827,0.0014239103 C5.4315064,-0.00456548882 5.10088138,0.0144943366 4.77076578,0.0278704187 C4.24706815,0.0490843901 3.73157956,0.133976663 3.2228154,0.254470565 C2.73193211,0.370721673 2.25540009,0.530499629 1.80422295,0.761851996 C1.4140387,0.961925581 1.05693806,1.20351014 0.765829978,1.53545239 C0.553770317,1.777248 0.409879187,2.05789829 0.287216584,2.35257236 C0.110074465,2.77814719 0.0284716311,3.22293467 0.00561294014,3.68044325 C-0.0144948482,4.08296289 0.0199714875,4.48336478 0.100191593,4.87618349 C0.134956307,5.04641924 0.410876207,6.01427848 0.447540354,6.10814394 C0.539913918,6.34462696 0.623692731,6.58528727 0.730628612,6.8150968 C0.982860185,7.35715562 1.27391733,7.87806596 1.59916426,8.38070973 C2.00209872,9.00339619 2.44873469,9.59188558 2.94019291,10.1464981 C3.29064189,10.5419804 3.66129327,10.9172312 4.06490454,11.2597549 C4.40421892,11.5477264 4.7540566,11.8179917 5.16314784,12.0019892 C5.37417409,12.0969026 5.58773292,12.132577 5.81141478,12.0459454 C6.12623303,11.9240251 6.40361571,11.7386012 6.66741127,11.533528 C7.17921743,11.1356587 7.64357416,10.6871451 8.07852971,10.2062247 C8.44455987,9.80150727 8.78948521,9.38091027 9.1130001,8.94162459 C9.66482534,8.19233839 10.1462187,7.40227624 10.5246207,6.55082821 C10.785316,5.96423825 10.9881914,5.36053156 11.096088,4.72553882 C11.1854705,4.19951966 11.2018085,3.67528349 11.108336,3.14834008" id="Fill-1" fill="#2358B8" mask="url(#mask-2)" transform="translate(5.585600, 6.047767) scale(1, -1) translate(-5.585600, -6.047767) "></path>
                <mask id="mask-4" fill="white">
                    <use xlink:href="#path-3"></use>
                </mask>
                <g id="Clip-2" transform="translate(13.374001, 8.066885) scale(1, -1) translate(-13.374001, -8.066885) "></g>
                <path d="M21.6537557,3.72003093 C21.5844955,3.32960783 21.2860702,2.66824305 21.042634,2.17244586 C20.8060278,1.69052688 20.4762564,1.25836001 20.0632703,0.915343248 C20.0431949,0.898682839 20.0229558,0.882251551 20.0025095,0.866093027 C19.2531184,0.273595635 18.3919705,-0.107324381 17.488697,-0.393246243 C16.9014149,-0.579129275 16.2999381,-0.711212388 15.690453,-0.810596584 C15.0098638,-0.921589604 14.3253469,-0.985372677 13.6377095,-0.997865256 C13.1429815,-1.00684464 12.6473043,-0.978269909 12.1523909,-0.958216319 C11.3672568,-0.926412067 10.5944299,-0.799140507 9.83168428,-0.618494538 C9.0957459,-0.444209419 8.38132311,-0.204668304 7.70491268,0.142178065 C7.11994357,0.442130893 6.58457381,0.804317496 6.14814092,1.30196948 C5.83021842,1.66447249 5.61449503,2.08522692 5.43059772,2.52700598 C5.16502403,3.1650331 5.04268404,3.83186407 5.00841401,4.51776667 C4.97826816,5.12122917 5.02994052,5.72151669 5.15020751,6.31043543 C5.2023272,6.565655 5.61598978,8.01668172 5.67095713,8.15740598 C5.80944473,8.51194429 5.93504698,8.87274525 6.09536659,9.21727859 C6.47351533,10.02994 6.90987185,10.8108953 7.39748613,11.5644651 C8.00157052,12.4980045 8.67117277,13.3802751 9.40797309,14.2117572 C9.9333706,14.8046692 10.4890558,15.3672499 11.0941549,15.8807658 C11.6028593,16.3124962 12.1273403,16.7176813 12.740655,16.9935327 C13.0570282,17.1358281 13.3771983,17.1893116 13.7125449,17.0594325 C14.1845244,16.876648 14.60038,16.5986581 14.9958656,16.2912098 C15.7631718,15.6947191 16.4593412,15.0223019 17.1114321,14.3013001 C17.6601891,13.6945426 18.1773055,13.0639783 18.662323,12.4053957 C19.4896264,11.2820564 20.2113374,10.0975854 20.7786423,8.8210838 C21.16948,7.94166078 21.4736334,7.03657614 21.6353932,6.08458705 C21.7693966,5.29597253 21.7938908,4.51003109 21.6537557,3.72003093" id="Fill-1" stroke="#FFFFFF" stroke-width="2" fill="#2358B8" mask="url(#mask-4)" transform="translate(13.374000, 8.066887) scale(1, -1) translate(-13.374000, -8.066887) "></path>
                <mask id="mask-6" fill="white">
                    <use xlink:href="#path-5"></use>
                </mask>
                <g id="Clip-2" transform="translate(22.611010, 11.000289) scale(1, -1) translate(-22.611010, -11.000289) "></g>
                <path d="M34.0913412,5.24709976 C33.9953081,4.7303633 33.5815251,3.85502756 33.2439875,3.1988254 C32.9159201,2.56099146 32.4586741,1.9890059 31.8860463,1.53501312 C31.8582107,1.51296258 31.8301481,1.49121529 31.8017981,1.46982901 C30.7627264,0.685641281 29.5686979,0.181482436 28.3162598,-0.196943556 C27.5019611,-0.442965217 26.6679807,-0.617781101 25.8228962,-0.749319008 C24.8792222,-0.896221535 23.930102,-0.980640307 22.9766552,-0.997174603 C22.2906879,-1.00905908 21.6034044,-0.971239585 20.9171799,-0.944698069 C19.8285486,-0.902604206 18.7569819,-0.734156553 17.6993934,-0.4950663 C16.6789746,-0.26439482 15.6883884,0.0526448913 14.7505084,0.511706263 C13.9394168,0.908702653 13.1970974,1.38806727 12.5919593,2.04672431 C12.1511424,2.52650771 11.8520302,3.08338857 11.5970465,3.66809615 C11.2288141,4.51254381 11.059183,5.39511421 11.0116657,6.30292648 C10.9698669,7.10162684 11.0415134,7.89612504 11.2082702,8.6755763 C11.280537,9.01336691 11.8541027,10.9338434 11.9303179,11.1200962 C12.1223386,11.589338 12.2964929,12.0668687 12.5187848,12.5228687 C13.0431087,13.5984499 13.6481409,14.6320673 14.3242447,15.6294391 C15.1618407,16.8650059 16.0902808,18.0327171 17.1118947,19.1332081 C17.8403871,19.9179445 18.6108749,20.6625366 19.4498779,21.34219 C20.1552243,21.913598 20.8824458,22.4498723 21.7328402,22.8149698 C22.1715089,23.0033019 22.6154422,23.0740889 23.0804187,22.90219 C23.734844,22.6602694 24.3114505,22.2923416 24.8598129,21.8854247 C25.9237249,21.0959518 26.8890018,20.2059879 27.7931613,19.2517207 C28.5540429,18.4486593 29.271053,17.6140889 29.9435564,16.7424355 C31.0906576,15.2556629 32.0913494,13.6879806 32.8779487,11.9984933 C33.4198665,10.834551 33.8415918,9.63664489 34.0658806,8.37665933 C34.2516836,7.33290482 34.2856461,6.29268821 34.0913412,5.24709976" id="Fill-1" stroke="#FFFFFF" stroke-width="2" fill="#2358B8" mask="url(#mask-6)" transform="translate(22.611008, 11.000292) scale(1, -1) translate(-22.611008, -11.000292) "></path>
                <circle id="Oval" fill="#FFFFFF" mask="url(#mask-6)" cx="22.000002" cy="12" r="5"></circle>
                <rect id="Rectangle" fill="#FFFFFF" mask="url(#mask-6)" x="19.000002" y="-1" width="1" height="24"></rect>
                <rect id="Rectangle" fill="#FFFFFF" mask="url(#mask-6)" x="21.000002" y="-1" width="1" height="24"></rect>
                <rect id="Rectangle" fill="#FFFFFF" mask="url(#mask-6)" x="23.000002" y="-1" width="1" height="24"></rect>
                <rect id="Rectangle" fill="#FFFFFF" mask="url(#mask-6)" x="25.000002" y="-1" width="1" height="24"></rect>
            </g>
        </g>
    </g>
</svg>