<?xml version="1.0" encoding="UTF-8"?>
<svg width="35px" height="24px" viewBox="0 0 35 24" version="1.1" xmlns="http://www.w3.org/2000/svg" xmlns:xlink="http://www.w3.org/1999/xlink">
    <!-- Generator: Sketch 54.1 (76490) - https://sketchapp.com -->
    <title>cms-pga-logo</title>
    <desc>Created with Sketch.</desc>
    <defs>
        <polygon id="path-1" points="0 0 11.1711973 0 11.1711973 12.0949475 0 12.0949475"></polygon>
        <polygon id="path-3" points="0 0 16.747999 0 16.747999 18.1328969 0 18.1328969"></polygon>
        <polygon id="path-5" points="0 0 23.2220155 0 23.2220155 23.9994224 0 23.9994224"></polygon>
    </defs>
    <g id="Desktop" stroke="none" stroke-width="1" fill="none" fill-rule="evenodd">
        <g id="01-Home" transform="translate(-296.000000, -109.000000)">
            <g id="cms-pga-logo" transform="translate(296.000000, 109.000000)">
                <g id="Group-3-Copy" transform="translate(5.772727, 7.047619) scale(1, -1) translate(-5.772727, -7.047619) translate(-0.000000, 1.000000)">
                    <mask id="mask-2" fill="white">
                        <use xlink:href="#path-1"></use>
                    </mask>
                    <g id="Clip-2"></g>
                    <path d="M11.1083341,3.14804565 C11.0621364,2.88762686 10.8630816,2.44648542 10.7007056,2.11578035 C10.5428853,1.79433228 10.3229222,1.50606971 10.0474536,1.27727175 C10.0340629,1.26615897 10.0205631,1.25519903 10.006925,1.24442102 C9.50706857,0.849215288 8.93266845,0.595135225 8.33016983,0.404420531 C7.93844275,0.280433419 7.53724762,0.192331759 7.13071078,0.126040828 C6.67674635,0.0520066148 6.22016201,0.00946223176 5.7614963,0.00112947113 C5.43150443,-0.00485992799 5.10087941,0.0141998974 4.77076381,0.0275759795 C4.24706618,0.0487899509 3.73157759,0.133682224 3.22281343,0.254176126 C2.73193014,0.370427234 2.25539812,0.53020519 1.80422098,0.761557557 C1.41403673,0.961631142 1.05693609,1.2032157 0.765828006,1.53515795 C0.553768345,1.77695356 0.409877215,2.05760385 0.287214612,2.35227792 C0.110072493,2.77785275 0.028469659,3.22264023 0.00561096807,3.68014881 C-0.0144968202,4.08266845 0.0199695154,4.48307034 0.100189621,4.87588905 C0.134954335,5.0461248 0.410874235,6.01398404 0.447538382,6.1078495 C0.539911946,6.34433252 0.623690759,6.58499283 0.73062664,6.81480237 C0.982858213,7.35686118 1.27391536,7.87777152 1.59916229,8.38041529 C2.00209675,9.00310175 2.44873272,9.59159114 2.94019094,10.1462037 C3.29063992,10.541686 3.6612913,10.9169367 4.06490257,11.2594605 C4.40421695,11.547432 4.75405463,11.8176972 5.16314587,12.0016948 C5.37417212,12.0966082 5.58773095,12.1322826 5.81141281,12.045651 C6.12623106,11.9237307 6.40361374,11.7383068 6.66740929,11.5332335 C7.17921546,11.1353642 7.64357219,10.6868507 8.07852774,10.2059303 C8.44455789,9.80121283 8.78948324,9.38061583 9.11299812,8.94133016 C9.66482337,8.19204395 10.1462168,7.40198181 10.5246187,6.55053377 C10.785314,5.96394381 10.9881895,5.36023713 11.096086,4.72524438 C11.1854685,4.19922522 11.2018065,3.67498905 11.1083341,3.14804565" id="Fill-1" fill="#FFFFFF" mask="url(#mask-2)"></path>
                </g>
                <g id="Group-3-Copy" transform="translate(13.500000, 9.066667) scale(1, -1) translate(-13.500000, -9.066667) translate(5.000000, -0.000000)">
                    <mask id="mask-4" fill="white">
                        <use xlink:href="#path-3"></use>
                    </mask>
                    <g id="Clip-2"></g>
                    <path d="M16.6537537,4.71958951 C16.5844935,4.3291664 16.2860682,3.66780162 16.042632,3.17200443 C15.8060258,2.69008546 15.4762545,2.25791859 15.0632684,1.91490182 C15.0431929,1.89824141 15.0229539,1.88181012 15.0025075,1.8656516 C14.2531164,1.27315421 13.3919686,0.892234192 12.4886951,0.606312331 C11.9014129,0.420429298 11.2999361,0.288346185 10.690451,0.18896199 C10.0098619,0.0779689691 9.32534489,0.0141858965 8.6377075,0.00169331729 C8.14297954,-0.00728606498 7.64730237,0.0212886643 7.15238893,0.0413422543 C6.36725487,0.0731465062 5.59442792,0.200418067 4.83168231,0.381064035 C4.09574392,0.555349154 3.38132114,0.794890269 2.70491071,1.14173664 C2.1199416,1.44168947 1.58457184,1.80387607 1.14813895,2.30152805 C0.830216446,2.66403106 0.614493061,3.0847855 0.430595748,3.52656456 C0.165022062,4.16459167 0.0426820698,4.83142264 0.00841203369,5.51732525 C-0.0217338147,6.12078774 0.0299385479,6.72107527 0.150205535,7.309994 C0.202325231,7.56521357 0.615987806,9.01624029 0.670955154,9.15696456 C0.80944276,9.51150286 0.935045006,9.87230383 1.09536462,10.2168372 C1.47351336,11.0294985 1.90986988,11.8104538 2.39748416,12.5640237 C3.00156855,13.497563 3.6711708,14.3798337 4.40797112,15.2113158 C4.93336863,15.8042278 5.48905383,16.3668084 6.09415291,16.8803244 C6.60285728,17.3120548 7.12733831,17.7172399 7.74065303,17.9930913 C8.05702623,18.1353867 8.37719631,18.1888702 8.71254296,18.058991 C9.18452242,17.8762066 9.60037802,17.5982167 9.99586362,17.2907683 C10.7631698,16.6942777 11.4593393,16.0218605 12.1114301,15.3008587 C12.6601871,14.6941012 13.1773035,14.0635369 13.6623211,13.4049543 C14.4896244,12.281615 15.2113354,11.0971439 15.7786404,9.82064237 C16.1694781,8.94121935 16.4736314,8.03613471 16.6353913,7.08414562 C16.7693946,6.2955311 16.7938888,5.50958967 16.6537537,4.71958951" id="Fill-1" stroke="#1A1A27" stroke-width="2" fill="#FFFFFF" mask="url(#mask-4)"></path>
                </g>
                <g id="Group-3-Copy" transform="translate(23.000000, 12.000000) scale(1, -1) translate(-23.000000, -12.000000) translate(11.000000, 0.000000)">
                    <mask id="mask-6" fill="white">
                        <use xlink:href="#path-5"></use>
                    </mask>
                    <g id="Clip-2"></g>
                    <path d="M23.0913392,6.24651552 C22.9953062,5.72977906 22.5815231,4.85444332 22.2439856,4.19824116 C21.9159182,3.56040722 21.4586722,2.98842166 20.8860444,2.53442888 C20.8582087,2.51237834 20.8301461,2.49063105 20.8017961,2.46924477 C19.7627244,1.68505704 18.5686959,1.18089819 17.3162579,0.802472202 C16.5019591,0.556450542 15.6679787,0.381634657 14.8228943,0.250096751 C13.8792202,0.103194224 12.9301001,0.0187754513 11.9766533,0.00224115523 C11.2906859,-0.0096433213 10.6034024,0.0281761733 9.91717793,0.0547176895 C8.82854667,0.0968115523 7.75697989,0.265259206 6.69939144,0.504349458 C5.67897267,0.735020939 4.68838645,1.05206065 3.75050645,1.51112202 C2.93941482,1.90811841 2.19709541,2.38748303 1.59195737,3.04614007 C1.15114045,3.52592347 0.852028193,4.08280433 0.597044525,4.66751191 C0.228812102,5.51195957 0.0591810211,6.39452996 0.0116637442,7.30234224 C-0.0301351212,8.1010426 0.041511432,8.89554079 0.208268179,9.67499206 C0.280534984,10.0127827 0.854100739,11.9332592 0.93031597,12.1195119 C1.1223366,12.5887538 1.29649097,13.0662845 1.51878288,13.5222845 C2.04310676,14.5978657 2.6481389,15.631483 3.32424274,16.6288549 C4.16183875,17.8644217 5.09027884,19.0321329 6.11189273,20.1326238 C6.84038508,20.9173603 7.61087296,21.6619523 8.44987588,22.3416058 C9.15522228,22.9130137 9.88244387,23.4492881 10.7328382,23.8143856 C11.171507,24.0027177 11.6154403,24.0735047 12.0804167,23.9016058 C12.734842,23.6596852 13.3114485,23.2917574 13.8598109,22.8848404 C14.9237229,22.0953675 15.8889998,21.2054036 16.7931594,20.2511365 C17.5540409,19.4480751 18.2710511,18.6135047 18.9435544,17.7418513 C20.0906557,16.2550787 21.0913474,14.6873964 21.8779467,12.997909 C22.4198645,11.8339668 22.8415898,10.6360606 23.0658786,9.37607509 C23.2516816,8.33232058 23.2856441,7.29210397 23.0913392,6.24651552" id="Fill-1" stroke="#1A1A27" stroke-width="2" fill="#FFFFFF" mask="url(#mask-6)"></path>
                </g>
                <circle id="Oval" fill="#1A1A27" cx="22" cy="13" r="5"></circle>
                <g id="Group" transform="translate(19.000000, 0.000000)" fill="#1A1A27">
                    <rect id="Rectangle" x="0" y="0" width="1" height="24"></rect>
                    <rect id="Rectangle" x="2" y="0" width="1" height="24"></rect>
                    <rect id="Rectangle" x="4" y="0" width="1" height="24"></rect>
                    <rect id="Rectangle" x="6" y="0" width="1" height="24"></rect>
                </g>
            </g>
        </g>
    </g>
</svg>