<svg xmlns="http://www.w3.org/2000/svg" viewBox="0 0 500.05 299.25"><defs><style>.cls-1{fill:#231f20;}.cls-2{fill:#00adee;}.cls-3{fill:#f5f5f5;}.cls-4{fill:#fefefe;}.cls-5{fill:#fcfcfc;}.cls-6{fill:#f8f8f8;}.cls-7{fill:#fdfdfd;}</style></defs><title>fearless-logo</title><g id="Layer_2" data-name="Layer 2"><g id="Layer_1-2" data-name="Layer 1"><path class="cls-1" d="M500.05,209.25c-2.37,3-1.86,6.82-3,10.19-3.8,11.51-9.48,21.49-21.74,25.55-15.95,5.28-31.23-3.25-37.81-20.66a71.69,71.69,0,0,1-4.25-23c-.28-7.83,0-15.67-.1-23.5-.07-4.22,1.77-6.15,5.95-6.13,17,.11,15.71-1.77,15.81,14.85,0,7.29-1,14.66,1,21.88,1.8,6.75,5,9.85,10.19,9.79s8.91-3.12,10.19-9.8c2.45-12.69.42-25.16-2.89-37.47-4.4-16.33-12.57-31-19.68-46.23C444.1,104.18,436,83.07,434.51,60.11c-.94-14.43.42-28.64,7.3-41.72,7.24-13.77,21.36-19.78,34.79-15,8.81,3.13,13.89,10,17.4,18.2a65.15,65.15,0,0,1,5,24.79c.13,8.33,0,16.67,0,25,0,1.16.37,2.65-.2,3.44-4.3,6-10.67,2.54-16.12,3.09-3.39.34-4.88-2.19-4.85-5.58.06-8,0-16,0-24a27.33,27.33,0,0,0-2.28-11.67c-1.47-3.2-3.69-5.51-7.55-5.58s-6.33,1.74-8.12,4.83c-4,6.95-2.89,14.49-2.46,21.95C458.58,77,467,93.69,475.15,110.4c10.87,22.15,20.93,44.54,24.13,69.34,0,.2.5.34.77.51Z"/><path class="cls-1" d="M127.05,299.25c-11.17-9.83-14.64-24.07-21-36.68-1-2.05-1.89-4.18-3.13-6.95-7,8.3-13.67,16.1-20.28,23.9-1.62,1.9-3.19,3.84-4.86,5.7-3.65,4.07-6.53,4.59-9.78,1.85-4.06-3.44-4.89-7.85-1.8-11.8,5.12-6.56,10.47-12.93,15.72-19.39l28.33-34.77C102,223,95.08,225.83,88,228.45c-1.09.41-2.09,1-3.18,1.42-3.4,1.2-7,3.31-9.6-1.24-2.54-4.4-1.47-10.58,2.69-12.81,19.79-10.65,40.55-18.54,63.33-19,14.06-.27,24.51,6.27,30.49,19.31a13.05,13.05,0,0,1-1.65,14.49,49.58,49.58,0,0,1-18.67,14.61,185.18,185.18,0,0,1-25.15,9.43c-3.81,1.12-3.55,2.44-2,5.38q6.9,12.69,13.26,25.66c3.71,7.61,2.72,10.11-4.56,13.52Z"/><path class="cls-1" d="M355,279.11c-5.07,2.83-10.11,5.69-15.21,8.45a32.33,32.33,0,0,1-5.46,2.4c-5.73,1.83-7,1-7.4-5-.05-.64-.16-1.28-.25-2-2.38-.14-3.5,1.86-5.15,2.81a20.47,20.47,0,0,1-6.82,2.93c-9,1.45-12.69,1.66-11.37-9.62-4.85,2.28-9.42,4.35-13.93,6.55A30.54,30.54,0,0,1,277.5,289c-5.53.26-7.57-2.26-6.64-7.73a15.35,15.35,0,0,1,5-9c1.73-1.57,3.53-3.06,5.17-4.71s2.88-3.23,4.35-4.9c-2-1.37-4-.47-6.16.85-7.49,4.63-15,9.17-22.58,13.71-1.14.69-2.58,2-3.52,1.69-5.24-1.49-8,2.62-11.58,4.76a36.23,36.23,0,0,1-15.39,5.37c-7.26.61-9.54-.93-11.48-7.79-8.52,3.78-17,7.63-26.47,8.4-7.33.6-10.34-1.92-11.45-9.82-4.54,2.7-8.89,5.27-13.23,7.87-6.39,3.83-13,5-19.88,1.39-5.57-2.93-6.51-7.2-2.8-12.29a17.54,17.54,0,0,1,6-5.11c2.33-1.24,4.58-2.64,6.91-4-1.57-2.17-4.6-.66-6.1-3a7.8,7.8,0,0,1,2.25-10.59c9.23-6.39,19-11.74,30.58-12.27a8.31,8.31,0,0,1,1.49-.11c3.37.47,7.59-.09,8.58,4.37s-2.47,6.66-6,7.95c-3.3,1.22-6.28,2.36-10.57,1.09-3.74-1.11-8.8,1.86-13.72,4.6a22.89,22.89,0,0,0,9.23.44c2.53-.25,3.72.83,4.2,3.09s-.4,3.73-2.72,4.52c-7.2,2.46-14.21,5.3-20.3,11,3.51.64,6.05-.72,8.56-1.68a189.66,189.66,0,0,0,24.6-12c3-1.66,5.15-4.64,7.79-6.91,5.86-5,12.14-9.32,20-10.47a11.56,11.56,0,0,1,3-.31c3.47.43,7.42.66,8.69,4.61,1.21,3.76-1.8,6.06-4.31,8.23A26.09,26.09,0,0,1,209.8,265c-3.48,1.13-5.05.47-2-4.47-7.47,4-12.43,8.54-15.81,14.77-1.35,2.49-.53,3.57,2.08,2.87,11-2.94,21.65-6.69,29.52-15.6,4.09-4.63,8.33-9.09,13.68-12.31,3.33-2,6.79-3.64,10.81-3.08a5,5,0,0,0,4-1.24c2.51-1.9,5-4.08,8.41-1.39,3.65,2.86,4.65,6.45,3.17,10.6-1.19,3.35-2.92,6.52-4.44,9.84,6.57-.83,10.88-4.48,12.48-10.57a7,7,0,0,1,3.78-4.39q7-3.83,14-7.6c2.51-1.34,4.83-1.93,7.14.72,2.6,3,0,4.33-1.47,6.16-.48.6-1.29,1.14-.9,2.39,2.44,1.23,6.07-.91,8.12,2.81,1.74,3.16,1.95,5.36-1,7.71-3.26,2.58-6.34,5.39-9.47,8.13-1.35,1.19-3,2.2-3.16,4.29,1.45,1.16,2.56-.12,3.6-.63,10.4-5.18,21-10,29.71-18.06a40.19,40.19,0,0,1,13.6-8.19c2.87-1,6.19-2.08,8.69-.36,4.1,2.82,5.7.25,7.93-2.34,7.92-9.21,16.05-18.24,23.94-27.47a66.47,66.47,0,0,0,5.91-8.63c2.33-3.81,4.64-4.1,9.44-1.28,4,2.38,2.34,4.9.35,7.35-12.75,15.59-26.79,30.1-38.65,46.43-2.6,3.57-5.82,6.76-7.85,11.74,5.81-2,10.22-5.15,14.9-7.71a1.92,1.92,0,0,0,1.12-2c-.58-5.34,3.19-7.68,7-9.94,8.37-5,17.09-8.88,27.21-8.54,3.5.12,5.72,1.38,6.59,4.79.91,3.6-1.35,5.43-4.18,6.3s-5.59,4.05-8.85.44c-.86-1-13.93,4.15-14.65,5.4-1.08,1.86.46,1.89,1.54,2.08,2.12.39,4.25.73,6.4,1,3.66.39,5.6,2.63,6.5,6a7.65,7.65,0,0,1-2.95,8.8c-7.77,6-16,10.8-26.24,10.68-2.39,0-4.67,0-5.76-2.8s-2-5.41.95-7.63c2.34-2.36,5.58-1.69,8.37-2.5a49.87,49.87,0,0,0,10-3.58c-5.14-1-9.55-.24-13.52,2.91A10.55,10.55,0,0,1,355,279.11Z"/><path class="cls-1" d="M234.22,87.81C242,93.1,244.6,100.4,244.59,109.1c0,13,.17,26,.26,39,0,4.06,1.23,7.8,2.66,11.58,2,5.17-.13,8-5.57,8.13-14.07.37-18.21-3.28-18.63-17.81-.41-13.81-.06-27.64-.11-41.46,0-8.44-2-10.14-10.29-10.33-3.47-.07-4.47.87-4.43,4.39.17,18.65.08,37.31.08,56,0,9.31-.49,9.84-9.67,10.57-12.49,1-12.68.84-12.68-11.57q0-72.69,0-145.39c0-7.94.92-8.87,8.82-8.87h23c14.54,0,24.26,7.82,25.82,22.31,1.66,15.39,1.08,30.92.22,46.38C243.73,78.17,241.34,81.18,234.22,87.81Z"/><path class="cls-1" d="M403.71,47.45c-.19-4.32-.17-8.66-.63-13s-1.79-8-6.95-8.2c-3.91-.13-6.77,3.39-7,8.79a64,64,0,0,0,4.69,27.32c6.08,14.94,14.66,28.69,20.88,43.57,8,19.22,13.76,38.88,11.38,60.07a29.35,29.35,0,0,1-.35,3c-2.2,10.09-5.43,19.91-16.79,22.64-12.46,3-22.91-2.23-31.56-10.9-8.26-8.3-11.54-18.91-12.19-30.35-.34-5.81-.2-11.66-.1-17.49.07-4.71,2.71-7,7.35-6.6a8.1,8.1,0,0,1,1,.11c14.25,2.79,14,.71,13.82,16,0,3.66.13,7.32.37,11a17.38,17.38,0,0,0,2.25,8.09C392,165,395,167,399,166.12c3.77-.87,4-4.5,4.18-7.68.68-14-3.07-27-8.71-39.57-7-15.6-16.15-30.17-22.15-46.26-5.67-15.21-9-30.64-5.23-46.88,4.33-18.82,20-29.28,36.85-24.63,8.33,2.3,13.54,8,17.15,15.55,3.32,6.9,4.35,14.32,4.72,21.81.31,6.31.16,12.66,0,19-.09,5.1-2.26,7.12-7.41,7.31-14.42.54-14.9.08-14.9-14.31v-3Z"/><path class="cls-1" d="M.05,123.83V11.38C.05,3.89.7,3.25,8.4,3.25c13.32,0,26.65.09,40,0C53,3.16,55.2,5,55.07,9.7c-.1,3.16,0,6.33,0,9.5-.09,5.06-1.76,6.79-7,6.86-7.33.1-14.66.16-22,0-3.09-.09-3.92.92-3.91,4q.18,35.73,0,71.47c0,3.54,1.3,4.14,4.36,4,5.16-.2,10.33,0,15.49-.07,4.33-.05,6.31,2.06,6.6,6.33,1,14.73.46,15.35-14.09,15.35-12.28,0-12.28,0-12.28,12.46q0,49,0,98c0,6.84-.92,7.73-7.81,7.75C.57,245.28-.06,247,0,230.78.15,195.13.05,159.48.05,123.83Z"/><path class="cls-1" d="M148.21,3.25c10.54.15,11.41-2.33,13,11.87,4.65,41.49,9.68,82.95,14.56,124.42,1,8.42,1.93,16.85,2.91,25.28.44,3.78-1,6.06-5,6.59-3.46.47-6.9,1.1-10.36,1.54-4.71.59-6.73-1.09-7.15-6-.6-7.13-1.18-14.26-1.61-21.4-.17-2.77-.69-4-4.07-3.54-11.42,1.45-11.45,1.27-12.69,12.81-.64,5.95-1.31,11.9-1.88,17.87-.3,3.21-1.66,5.28-5.06,5.77-2,.29-3.9.83-5.85,1.25-7.48,1.63-9.58-.34-8.7-7.78q7-58.48,13.81-117c1.71-14.53,3.36-29.08,5.08-43.62C136.2,3.31,136.34,3.25,148.21,3.25Z"/><path class="cls-1" d="M62.54,98.74q0-43.75,0-87.5c0-7,1-8,8.13-8,11,0,22,.11,33,0,4.75-.07,6.76,2,6.55,6.59,0,.84,0,1.67,0,2.5,0,13.79,0,13.79-13.57,13.79-3.17,0-6.34.13-9.5,0-2.35-.13-3.17.63-3.15,3.07q.15,22.76,0,45.5c0,2.47.95,3.22,3.24,3.14,3-.1,6,0,9,0,1.16,0,2.46-.25,3.47.17,7,2.92,3.44,9.16,4,14,.44,3.52-1.37,6.2-5.39,6.32-3.83.11-7.67.13-11.5,0C84.77,98.13,84,98.7,84,101q0,30.26-.17,60.5c0,3.19,1.31,3.06,3.63,2.44,4.49-1.21,9-2.26,13.56-3.32,6.22-1.44,8.57.26,8.51,6.53C109.35,186,112,181.9,94.78,186.85c-7.83,2.24-15.64,4.54-23.46,6.84-6.37,1.87-8.76.18-8.77-6.46Q62.51,143,62.54,98.74Z"/><path class="cls-1" d="M310.21,87.47q0-38.22,0-76.44c0-6.69,1.11-7.77,7.82-7.78,11.83,0,23.65.1,35.47,0,4.61-.06,6.89,1.69,6.73,6.42-.11,3.16-.05,6.33,0,9.49,0,4.18-2.07,6-6.18,6-5.83-.06-11.66.12-17.48-.07-2.9-.1-4.11.48-4.08,3.76.18,15,.15,30,0,45,0,3,.74,4.25,3.89,4,3.48-.23,7-.1,10.49,0s5.21,1.83,5.17,5.32c-.18,15.38,2.21,15.6-14.38,15.08-4.19-.14-5.29,1-5.21,5.19.26,14.48.17,29,0,43.46,0,3,.55,4.39,4,4.71,6.28.59,12.49,1.91,18.74,2.83,4.14.62,6.15,2.75,5.89,7.09-.21,3.48,0,7-.06,10.48-.11,4.79-2.4,6.82-7,5.94q-18.36-3.57-36.92-5.93c-6.1-.78-6.93-1.89-6.93-8Q310.2,125.68,310.21,87.47Z"/><path class="cls-1" d="M276.22,75.78c0,21.48.18,43-.14,64.43-.08,4.76,1.64,5.85,5.79,5.93,5.31.1,10.61.74,15.92,1,4.43.18,6.22,2.44,6.11,6.69-.09,3.49.05,7,0,10.49-.1,3.65-2.08,5.53-5.73,5.32-12.94-.75-25.88-1.57-38.82-2.35-3.23-.2-4.71-2.14-5.06-5.13a29,29,0,0,1,0-3.49q0-73.41,0-146.83c0-7.61.95-8.52,8.61-8.56,14.09-.06,13.45-1.12,13.4,13.61C276.17,36.49,276.22,56.14,276.22,75.78Z"/><path class="cls-2" d="M337.66,215c-2.48,1-4.71.09-6.88-.25-10-1.59-20-3.17-30-5-3.14-.59-3.53.38-2.84,3,.77,2.89,1.51,5.79,2.09,8.72.34,1.73,2,3.75.58,5.18-1.66,1.66-3.78-.2-5.53-.71-14-4.08-28-8.38-42-12.52-1.16-.34-2.55-1.59-3.66-.45s.08,2.48.22,3.75c.2,1.72,2.15,3.73.47,5s-3.36-.65-5-1.31Q216.71,209,188.35,197.34c-1.48-.61-4.54-.55-3.8-2.76.62-1.85,3.3-.35,4.94,0,7,1.32,14,2.89,21,4.36,3.58.76,7.16,1.49,10.73,2.24,2.38.5,3.93.3,3.18-2.87-.58-2.41-.68-4.94-1.11-7.39-.55-3.18.14-4.23,3.64-3.11,14.87,4.77,29.81,9.3,44.72,13.93,1.27.39,2.54.78,3.79,1.22,2.4.85,3-.19,2.62-2.39-.53-2.94-1-5.9-1.58-8.83-.47-2.27.13-3.43,2.51-2.44q29,12.09,57.88,24.3C337.18,213.7,337.29,214.33,337.66,215Z"/><path class="cls-3" d="M355,279.11c5.84-5.27,12.05-9.18,20.9-5.34-6.57,4.32-13.65,5.51-20.88,6.23A4.4,4.4,0,0,1,355,279.11Z"/><path class="cls-4" d="M110.64,244.47c6.18-7.73,11.67-14.58,17.13-21.45.72-.9,2.07-2.1,1.87-2.8-1.77-6.24,3-4.74,6-5.22a55.32,55.32,0,0,1,18.82-.14c2.66.47,5.49,1.25,6.3,4.17.88,3.17-1.46,5.32-3.61,7.11-8.15,6.83-17.84,10.74-27.79,14A81.43,81.43,0,0,1,110.64,244.47Z"/><path class="cls-5" d="M251.57,251.69a7.34,7.34,0,0,1-1.29,6.29,66.25,66.25,0,0,1-14.66,16.86c-1.44,1.15-3.26,3.43-5.06,1.82-1.55-1.37.46-3.33,1.32-4.81C236.66,263.65,243.51,257.47,251.57,251.69Z"/><path class="cls-6" d="M341.72,257.88c-5.38,6.58-10.91,13-18.47,17.19-1.06.58-2.6,1.4-3.7.21s.11-2.65.92-3.41C326.75,266.06,333.14,260.36,341.72,257.88Z"/><path class="cls-7" d="M208.53,51.14c0-7.48.12-15-.05-22.46-.07-2.83.81-3.64,3.65-3.67,9.32-.13,10.08.46,10.09,9.6,0,11.48.05,23,0,34.44,0,7.28-5.24,10.89-12.1,8.71-2.16-.69-1.53-2.31-1.54-3.66C208.51,66.45,208.53,58.8,208.53,51.14Z"/><path class="cls-5" d="M148,64.17c1.35,17.34,2.93,34.67,3.92,52,.34,6-5.34,3-8.16,3.82-3.41,1-1.83-2.24-1.71-3.57C143.67,99,145.46,81.5,147.21,64Z"/></g></g></svg>