<svg xmlns="http://www.w3.org/2000/svg" viewBox="0 0 40 153.22"><defs><style>.cls-1{fill:#00adee;}</style></defs><title>fearless-lightning-vertical</title><g id="Layer_2" data-name="Layer 2"><g id="Layer_1-2" data-name="Layer 1"><path class="cls-1" d="M27.69,0c1,2.48.1,4.71-.25,6.88-1.59,10-3.16,20-5,30-.58,3.13.38,3.53,3,2.84,2.89-.77,5.8-1.51,8.73-2.09,1.73-.34,3.74-2,5.17-.58,1.66,1.66-.2,3.77-.71,5.53-4.07,14-8.38,28-12.51,42-.34,1.16-1.6,2.55-.46,3.66s2.48-.08,3.76-.22c1.71-.2,3.72-2.15,5-.47s-.66,3.36-1.32,5Q21.62,121,10,149.31c-.61,1.48-.55,4.54-2.75,3.8-1.86-.63-.35-3.3,0-4.94,1.32-7,2.89-14,4.37-21,.75-3.58,1.48-7.16,2.23-10.73.5-2.38.3-3.93-2.86-3.18-2.42.58-4.94.68-7.4,1.11-3.18.55-4.23-.14-3.1-3.64C5.2,95.88,9.74,80.94,14.36,66c.39-1.27.79-2.54,1.23-3.79.84-2.4-.19-3-2.39-2.62-2.95.53-5.91,1-8.84,1.58-2.27.47-3.43-.14-2.43-2.51Q14,29.71,26.22.81C26.36.48,27,.37,27.69,0Z"/></g></g></svg>