<?xml version="1.0" encoding="utf-8"?>
<!-- Generator: Adobe Illustrator 23.0.2, SVG Export Plug-In . SVG Version: 6.00 Build 0)  -->
<svg version="1.1" id="Layer_1" xmlns="http://www.w3.org/2000/svg" xmlns:xlink="http://www.w3.org/1999/xlink" x="0px" y="0px"
	 viewBox="0 0 201 29" style="enable-background:new 0 0 201 29;" xml:space="preserve">
<style type="text/css">
	.st0{fill:#FFFFFF;}
	.st1{fill-rule:evenodd;clip-rule:evenodd;fill:#FFFFFF;}
	.st2{fill-rule:evenodd;clip-rule:evenodd;fill:#00ACED;}
	.st3{filter:url(#Adobe_OpacityMaskFilter);}
	.st4{mask:url(#mask-2_1_);fill-rule:evenodd;clip-rule:evenodd;fill:#FFFFFF;}
	.st5{filter:url(#Adobe_OpacityMaskFilter_1_);}
	.st6{mask:url(#mask-4_1_);fill-rule:evenodd;clip-rule:evenodd;fill:#FFFFFF;}
</style>
<title>Group</title>
<desc>Created with Sketch.</desc>
<g id="Desktop">
	<g transform="translate(-297.000000, -106.000000)">
		<g id="Group" transform="translate(297.000000, 106.000000)">
			<path id="aplaceforFearlessfriends." class="st0" d="M68.1,26h-0.9v-0.6c-0.1,0.1-0.2,0.1-0.3,0.2s-0.3,0.2-0.4,0.2
				c-0.2,0.1-0.3,0.1-0.5,0.2s-0.4,0.1-0.7,0.1c-0.5,0-0.9-0.2-1.2-0.5s-0.5-0.7-0.5-1.2c0-0.4,0.1-0.7,0.3-1s0.4-0.5,0.8-0.6
				c0.3-0.1,0.7-0.2,1.2-0.3s1-0.1,1.5-0.1v-0.1c0-0.2,0-0.4-0.1-0.5s-0.2-0.2-0.3-0.3c-0.1-0.1-0.3-0.1-0.5-0.2s-0.4,0-0.6,0
				c-0.2,0-0.5,0-0.8,0.1s-0.6,0.2-0.9,0.3h0v-0.9c0.2,0,0.4-0.1,0.8-0.2s0.7-0.1,1-0.1c0.4,0,0.7,0,1,0.1s0.5,0.2,0.7,0.3
				c0.2,0.1,0.4,0.3,0.5,0.6s0.2,0.5,0.2,0.9V26z M67.2,24.7v-1.5c-0.3,0-0.6,0-1,0.1s-0.7,0.1-0.9,0.1c-0.3,0.1-0.5,0.2-0.6,0.3
				s-0.2,0.4-0.2,0.7c0,0.3,0.1,0.5,0.3,0.7s0.5,0.2,0.9,0.2c0.3,0,0.6-0.1,0.9-0.2S66.9,24.8,67.2,24.7z M78.2,23.2
				c0,0.4-0.1,0.8-0.2,1.2s-0.3,0.7-0.5,0.9c-0.2,0.2-0.5,0.4-0.8,0.6s-0.6,0.2-0.9,0.2c-0.3,0-0.5,0-0.8-0.1s-0.5-0.2-0.7-0.3V28
				h-0.9v-7.5h0.9v0.6c0.2-0.2,0.5-0.4,0.8-0.5s0.6-0.2,1-0.2c0.7,0,1.2,0.2,1.5,0.7S78.2,22.3,78.2,23.2z M77.2,23.2
				c0-0.7-0.1-1.1-0.3-1.5s-0.6-0.5-1-0.5c-0.3,0-0.5,0.1-0.8,0.2s-0.5,0.3-0.8,0.4V25c0.3,0.1,0.5,0.2,0.7,0.2s0.4,0.1,0.6,0.1
				c0.5,0,0.9-0.2,1.2-0.5S77.2,23.9,77.2,23.2z M80.5,26h-0.9v-7.6h0.9V26z M86.6,26h-0.9v-0.6c-0.1,0.1-0.2,0.1-0.3,0.2
				s-0.3,0.2-0.4,0.2c-0.2,0.1-0.3,0.1-0.5,0.2s-0.4,0.1-0.7,0.1c-0.5,0-0.9-0.2-1.2-0.5s-0.5-0.7-0.5-1.2c0-0.4,0.1-0.7,0.3-1
				s0.4-0.5,0.8-0.6c0.3-0.1,0.7-0.2,1.2-0.3s1-0.1,1.5-0.1v-0.1c0-0.2,0-0.4-0.1-0.5s-0.2-0.2-0.3-0.3c-0.1-0.1-0.3-0.1-0.5-0.2
				s-0.4,0-0.6,0c-0.2,0-0.5,0-0.8,0.1s-0.6,0.2-0.9,0.3h0v-0.9c0.2,0,0.4-0.1,0.8-0.2s0.7-0.1,1-0.1c0.4,0,0.7,0,1,0.1
				s0.5,0.2,0.7,0.3c0.2,0.1,0.4,0.3,0.5,0.6s0.2,0.5,0.2,0.9V26z M85.7,24.7v-1.5c-0.3,0-0.6,0-1,0.1s-0.7,0.1-0.9,0.1
				c-0.3,0.1-0.5,0.2-0.6,0.3s-0.2,0.4-0.2,0.7c0,0.3,0.1,0.5,0.3,0.7s0.5,0.2,0.9,0.2c0.3,0,0.6-0.1,0.9-0.2S85.4,24.8,85.7,24.7z
				 M92.4,25.7c-0.3,0.1-0.6,0.3-0.9,0.3s-0.6,0.1-0.9,0.1c-0.4,0-0.8-0.1-1.1-0.2s-0.6-0.3-0.8-0.5c-0.2-0.2-0.4-0.5-0.6-0.9
				S88,23.8,88,23.3c0-0.9,0.2-1.6,0.7-2.1s1.1-0.8,1.9-0.8c0.3,0,0.6,0,0.9,0.1s0.6,0.2,0.8,0.3v1h0c-0.3-0.2-0.6-0.4-0.9-0.5
				s-0.6-0.2-0.9-0.2c-0.5,0-0.9,0.2-1.2,0.5s-0.5,0.9-0.5,1.5c0,0.7,0.1,1.2,0.4,1.5s0.7,0.5,1.2,0.5c0.2,0,0.4,0,0.6-0.1
				s0.4-0.1,0.5-0.2c0.1-0.1,0.3-0.1,0.4-0.2s0.2-0.1,0.3-0.2h0V25.7z M98.1,23.4h-4c0,0.3,0.1,0.6,0.2,0.9s0.2,0.5,0.4,0.6
				c0.2,0.2,0.4,0.3,0.6,0.4s0.5,0.1,0.8,0.1c0.4,0,0.7-0.1,1.1-0.2s0.6-0.3,0.8-0.4h0v1c-0.3,0.1-0.6,0.2-0.9,0.3s-0.7,0.1-1,0.1
				c-0.9,0-1.6-0.2-2.1-0.7s-0.8-1.2-0.8-2.1c0-0.9,0.2-1.6,0.7-2.1s1.1-0.8,1.9-0.8c0.7,0,1.3,0.2,1.7,0.6s0.6,1,0.6,1.8V23.4z
				 M97.2,22.7c0-0.5-0.1-0.9-0.4-1.1s-0.6-0.4-1.1-0.4c-0.5,0-0.9,0.1-1.2,0.4s-0.5,0.6-0.5,1.1H97.2z M106,19.3L106,19.3
				c-0.1,0-0.3-0.1-0.4-0.1s-0.3,0-0.4,0c-0.4,0-0.7,0.1-0.9,0.3s-0.3,0.5-0.3,0.9v0.2h1.7v0.8H104V26h-0.9v-4.7h-0.6v-0.8h0.6v-0.2
				c0-0.6,0.2-1.1,0.5-1.5s0.8-0.5,1.4-0.5c0.2,0,0.4,0,0.6,0s0.3,0,0.5,0.1V19.3z M111.2,23.3c0,0.9-0.2,1.6-0.7,2.1
				s-1.1,0.8-1.8,0.8c-0.8,0-1.4-0.3-1.8-0.8s-0.7-1.2-0.7-2.1s0.2-1.6,0.7-2.1s1.1-0.8,1.8-0.8c0.8,0,1.4,0.3,1.8,0.8
				S111.2,22.4,111.2,23.3z M110.2,23.3c0-0.7-0.1-1.2-0.4-1.6s-0.7-0.5-1.2-0.5c-0.5,0-0.9,0.2-1.2,0.5s-0.4,0.9-0.4,1.6
				c0,0.7,0.1,1.2,0.4,1.6s0.7,0.5,1.2,0.5c0.5,0,0.9-0.2,1.1-0.5S110.2,24,110.2,23.3z M116,21.5L116,21.5c-0.2,0-0.3-0.1-0.4-0.1
				s-0.3,0-0.5,0c-0.3,0-0.6,0.1-0.8,0.2s-0.5,0.3-0.8,0.5V26h-0.9v-5.5h0.9v0.8c0.4-0.3,0.7-0.5,1-0.6s0.6-0.2,0.9-0.2
				c0.2,0,0.3,0,0.3,0s0.2,0,0.3,0V21.5z M125.1,19.6h-3.7v2.1h3.2v0.9h-3.2V26h-1v-7.3h4.6V19.6z M130.7,23.4h-4
				c0,0.3,0.1,0.6,0.2,0.9s0.2,0.5,0.4,0.6c0.2,0.2,0.4,0.3,0.6,0.4c0.2,0.1,0.5,0.1,0.8,0.1c0.4,0,0.7-0.1,1.1-0.2s0.6-0.3,0.8-0.4
				h0v1c-0.3,0.1-0.6,0.2-0.9,0.3s-0.7,0.1-1,0.1c-0.9,0-1.6-0.2-2.1-0.7s-0.8-1.2-0.8-2.1c0-0.9,0.2-1.6,0.7-2.1s1.1-0.8,1.9-0.8
				c0.7,0,1.3,0.2,1.7,0.6s0.6,1,0.6,1.8V23.4z M129.8,22.7c0-0.5-0.1-0.9-0.4-1.1s-0.6-0.4-1.1-0.4c-0.5,0-0.9,0.1-1.2,0.4
				s-0.5,0.6-0.5,1.1H129.8z M136.3,26h-0.9v-0.6c-0.1,0.1-0.2,0.1-0.3,0.2s-0.3,0.2-0.4,0.2c-0.2,0.1-0.3,0.1-0.5,0.2
				s-0.4,0.1-0.7,0.1c-0.5,0-0.9-0.2-1.2-0.5s-0.5-0.7-0.5-1.2c0-0.4,0.1-0.7,0.3-1s0.4-0.5,0.8-0.6c0.3-0.1,0.7-0.2,1.2-0.3
				s1-0.1,1.5-0.1v-0.1c0-0.2,0-0.4-0.1-0.5s-0.2-0.2-0.3-0.3c-0.1-0.1-0.3-0.1-0.5-0.2s-0.4,0-0.6,0c-0.2,0-0.5,0-0.8,0.1
				s-0.6,0.2-0.9,0.3h0v-0.9c0.2,0,0.4-0.1,0.8-0.2s0.7-0.1,1-0.1c0.4,0,0.7,0,1,0.1s0.5,0.2,0.7,0.3c0.2,0.1,0.4,0.3,0.5,0.6
				s0.2,0.5,0.2,0.9V26z M135.4,24.7v-1.5c-0.3,0-0.6,0-1,0.1s-0.7,0.1-0.9,0.1c-0.3,0.1-0.5,0.2-0.6,0.3s-0.2,0.4-0.2,0.7
				c0,0.3,0.1,0.5,0.3,0.7s0.5,0.2,0.9,0.2c0.3,0,0.6-0.1,0.9-0.2S135.2,24.8,135.4,24.7z M141.5,21.5L141.5,21.5
				c-0.2,0-0.3-0.1-0.4-0.1s-0.3,0-0.5,0c-0.3,0-0.6,0.1-0.8,0.2s-0.5,0.3-0.8,0.5V26h-0.9v-5.5h0.9v0.8c0.4-0.3,0.7-0.5,1-0.6
				s0.6-0.2,0.9-0.2c0.2,0,0.3,0,0.3,0s0.2,0,0.3,0V21.5z M143.3,26h-0.9v-7.6h0.9V26z M149.7,23.4h-4c0,0.3,0.1,0.6,0.2,0.9
				s0.2,0.5,0.4,0.6c0.2,0.2,0.4,0.3,0.6,0.4s0.5,0.1,0.8,0.1c0.4,0,0.7-0.1,1.1-0.2s0.6-0.3,0.8-0.4h0v1c-0.3,0.1-0.6,0.2-0.9,0.3
				s-0.7,0.1-1,0.1c-0.9,0-1.6-0.2-2.1-0.7s-0.8-1.2-0.8-2.1c0-0.9,0.2-1.6,0.7-2.1s1.1-0.8,1.9-0.8c0.7,0,1.3,0.2,1.7,0.6
				s0.6,1,0.6,1.8V23.4z M148.8,22.7c0-0.5-0.1-0.9-0.4-1.1s-0.6-0.4-1.1-0.4c-0.5,0-0.9,0.1-1.2,0.4s-0.5,0.6-0.5,1.1H148.8z
				 M155,24.4c0,0.5-0.2,0.9-0.6,1.2s-1,0.5-1.7,0.5c-0.4,0-0.8,0-1.1-0.1s-0.6-0.2-0.8-0.3v-1h0c0.3,0.2,0.6,0.4,1,0.5
				s0.7,0.2,1,0.2c0.4,0,0.7-0.1,0.9-0.2s0.3-0.3,0.3-0.6c0-0.2-0.1-0.4-0.2-0.5s-0.4-0.2-0.7-0.3c-0.1,0-0.3-0.1-0.5-0.1
				s-0.4-0.1-0.6-0.1c-0.5-0.1-0.8-0.3-1-0.6s-0.3-0.5-0.3-0.9c0-0.2,0-0.4,0.1-0.6s0.2-0.4,0.4-0.5c0.2-0.2,0.4-0.3,0.7-0.4
				s0.6-0.1,0.9-0.1c0.3,0,0.7,0,1,0.1s0.6,0.2,0.8,0.3v1h0c-0.2-0.2-0.5-0.3-0.9-0.4s-0.7-0.2-1-0.2c-0.3,0-0.6,0.1-0.8,0.2
				s-0.3,0.3-0.3,0.6c0,0.2,0.1,0.4,0.2,0.5c0.1,0.1,0.4,0.2,0.7,0.3c0.2,0,0.4,0.1,0.6,0.1s0.4,0.1,0.5,0.1c0.4,0.1,0.8,0.3,1,0.5
				C154.9,23.7,155,24,155,24.4z M160.2,24.4c0,0.5-0.2,0.9-0.6,1.2s-1,0.5-1.7,0.5c-0.4,0-0.8,0-1.1-0.1s-0.6-0.2-0.8-0.3v-1h0
				c0.3,0.2,0.6,0.4,1,0.5s0.7,0.2,1,0.2c0.4,0,0.7-0.1,0.9-0.2s0.3-0.3,0.3-0.6c0-0.2-0.1-0.4-0.2-0.5s-0.4-0.2-0.7-0.3
				c-0.1,0-0.3-0.1-0.5-0.1s-0.4-0.1-0.6-0.1c-0.5-0.1-0.8-0.3-1-0.6s-0.3-0.5-0.3-0.9c0-0.2,0-0.4,0.1-0.6s0.2-0.4,0.4-0.5
				c0.2-0.2,0.4-0.3,0.7-0.4s0.6-0.1,0.9-0.1c0.3,0,0.7,0,1,0.1s0.6,0.2,0.8,0.3v1h0c-0.2-0.2-0.5-0.3-0.9-0.4s-0.7-0.2-1-0.2
				c-0.3,0-0.6,0.1-0.8,0.2s-0.3,0.3-0.3,0.6c0,0.2,0.1,0.4,0.2,0.5c0.1,0.1,0.4,0.2,0.7,0.3c0.2,0,0.4,0.1,0.6,0.1s0.4,0.1,0.5,0.1
				c0.4,0.1,0.8,0.3,1,0.5C160.1,23.7,160.2,24,160.2,24.4z M167.9,19.3L167.9,19.3c-0.1,0-0.3-0.1-0.4-0.1s-0.3,0-0.4,0
				c-0.4,0-0.7,0.1-0.9,0.3s-0.3,0.5-0.3,0.9v0.2h1.7v0.8H166V26h-0.9v-4.7h-0.6v-0.8h0.6v-0.2c0-0.6,0.2-1.1,0.5-1.5
				s0.8-0.5,1.4-0.5c0.2,0,0.4,0,0.6,0s0.3,0,0.5,0.1V19.3z M171.9,21.5L171.9,21.5c-0.2,0-0.3-0.1-0.4-0.1s-0.3,0-0.5,0
				c-0.3,0-0.6,0.1-0.8,0.2s-0.5,0.3-0.8,0.5V26h-0.9v-5.5h0.9v0.8c0.4-0.3,0.7-0.5,1-0.6s0.6-0.2,0.9-0.2c0.2,0,0.3,0,0.3,0
				s0.2,0,0.3,0V21.5z M173.8,19.6h-1v-1h1V19.6z M173.7,26h-0.9v-5.5h0.9V26z M180.1,23.4h-4c0,0.3,0.1,0.6,0.2,0.9
				s0.2,0.5,0.4,0.6c0.2,0.2,0.4,0.3,0.6,0.4s0.5,0.1,0.8,0.1c0.4,0,0.7-0.1,1.1-0.2s0.6-0.3,0.8-0.4h0v1c-0.3,0.1-0.6,0.2-0.9,0.3
				s-0.7,0.1-1,0.1c-0.9,0-1.6-0.2-2.1-0.7s-0.8-1.2-0.8-2.1c0-0.9,0.2-1.6,0.7-2.1c0.5-0.5,1.1-0.8,1.9-0.8c0.7,0,1.3,0.2,1.7,0.6
				s0.6,1,0.6,1.8V23.4z M179.2,22.7c0-0.5-0.1-0.9-0.4-1.1s-0.6-0.4-1.1-0.4c-0.5,0-0.9,0.1-1.2,0.4s-0.5,0.6-0.5,1.1H179.2z
				 M186.1,26h-0.9v-3.1c0-0.3,0-0.5,0-0.7s-0.1-0.4-0.2-0.5c-0.1-0.1-0.2-0.2-0.4-0.3s-0.4-0.1-0.6-0.1c-0.3,0-0.5,0.1-0.8,0.2
				s-0.5,0.3-0.8,0.5V26h-0.9v-5.5h0.9v0.6c0.3-0.2,0.6-0.4,0.9-0.6s0.6-0.2,0.9-0.2c0.6,0,1,0.2,1.3,0.5s0.5,0.9,0.5,1.5V26z
				 M192.2,26h-0.9v-0.6c-0.3,0.2-0.5,0.4-0.8,0.5s-0.6,0.2-0.9,0.2c-0.7,0-1.2-0.3-1.6-0.8s-0.6-1.2-0.6-2.1c0-0.5,0.1-0.9,0.2-1.2
				s0.3-0.7,0.5-0.9c0.2-0.2,0.5-0.4,0.8-0.6s0.6-0.2,0.9-0.2c0.3,0,0.5,0,0.8,0.1c0.2,0.1,0.5,0.2,0.7,0.3v-2.4h0.9V26z
				 M191.3,24.7v-3.1c-0.2-0.1-0.5-0.2-0.7-0.2s-0.4-0.1-0.6-0.1c-0.5,0-0.9,0.2-1.2,0.5s-0.4,0.9-0.4,1.5c0,0.6,0.1,1.1,0.3,1.5
				s0.6,0.5,1.1,0.5c0.3,0,0.5-0.1,0.8-0.2S191.1,24.8,191.3,24.7z M198,24.4c0,0.5-0.2,0.9-0.6,1.2s-1,0.5-1.7,0.5
				c-0.4,0-0.8,0-1.1-0.1s-0.6-0.2-0.8-0.3v-1h0c0.3,0.2,0.6,0.4,1,0.5s0.7,0.2,1,0.2c0.4,0,0.7-0.1,0.9-0.2s0.3-0.3,0.3-0.6
				c0-0.2-0.1-0.4-0.2-0.5s-0.4-0.2-0.7-0.3c-0.1,0-0.3-0.1-0.5-0.1s-0.4-0.1-0.6-0.1c-0.5-0.1-0.8-0.3-1-0.6s-0.3-0.5-0.3-0.9
				c0-0.2,0-0.4,0.1-0.6s0.2-0.4,0.4-0.5c0.2-0.2,0.4-0.3,0.7-0.4s0.6-0.1,0.9-0.1c0.3,0,0.7,0,1,0.1s0.6,0.2,0.8,0.3v1h0
				c-0.2-0.2-0.5-0.3-0.9-0.4s-0.7-0.2-1-0.2c-0.3,0-0.6,0.1-0.8,0.2s-0.3,0.3-0.3,0.6c0,0.2,0.1,0.4,0.2,0.5
				c0.1,0.1,0.4,0.2,0.7,0.3c0.2,0,0.4,0.1,0.6,0.1s0.4,0.1,0.5,0.1c0.4,0.1,0.8,0.3,1,0.5C197.8,23.7,198,24,198,24.4z M200.8,26
				h-1.2v-1.4h1.2V26z"/>
			<g id="Group-55" transform="translate(0.000000, 0.000000)">
				<path id="Fill-1" class="st1" d="M10.6,16.8c0.2-1.3,0.6-2.5,1.2-3.9c0.7-1.6,1.7-3.2,2.8-4.8c0.6-0.8,1.3-1.7,2-2.4
					c-0.4-0.4-0.7-0.7-1.1-1.1c-0.5-0.4-0.9-0.8-1.5-1c-0.3-0.1-0.6-0.2-0.9-0.1c-0.4,0.2-0.8,0.4-1.2,0.7c-0.7,0.5-1.3,1.1-1.9,1.8
					c-0.5,0.5-1,1.1-1.4,1.7c-0.7,1-1.4,2.1-1.9,3.2c-0.4,0.8-0.6,1.6-0.8,2.5c-0.1,0.7-0.1,1.4,0,2.1c0.1,0.4,0.3,0.9,0.6,1.4
					c0.2,0.4,0.5,0.8,0.9,1.1c0,0,0,0,0.1,0C8.2,18.7,9,19,9.8,19.3c0.2,0.1,0.5,0.1,0.7,0.2C10.4,18.6,10.5,17.7,10.6,16.8"/>
				<path id="Fill-3" class="st1" d="M4.1,13.1c0.2-1,0.5-1.9,0.9-3c0.5-1.2,1.2-2.4,2.1-3.6c0.3-0.4,0.7-0.9,1-1.3
					c-0.3-0.3-0.6-0.7-1-1C6.8,4,6.5,3.7,6,3.5c-0.2-0.1-0.4-0.1-0.7,0C5.1,3.6,4.8,3.8,4.5,4C4,4.4,3.5,4.9,3.1,5.3
					c-0.4,0.4-0.7,0.8-1,1.3C1.5,7.4,1,8.2,0.7,9c-0.3,0.6-0.5,1.2-0.6,1.8c-0.1,0.5-0.1,1.1,0,1.6c0,0.3,0.2,0.7,0.4,1
					c0.2,0.3,0.4,0.6,0.7,0.8c0,0,0,0,0,0c0.5,0.4,1.1,0.7,1.7,0.8c0.4,0.1,0.7,0.2,1.1,0.3C3.9,14.7,3.9,13.9,4.1,13.1"/>
				<path id="Fill-5" class="st2" d="M25.4,19.9c-0.3,0.2-0.7,0.3-1,0.4v5.5c0.3,0,0.7-0.1,1-0.1V19.9z"/>
				<path id="Fill-7" class="st2" d="M25.4,4.7c-0.3-0.3-0.7-0.5-1-0.7v6.8c0.4,0.1,0.7,0.3,1,0.4V4.7z"/>
				<path id="Fill-9" class="st2" d="M20.3,11.2c0.3-0.2,0.7-0.3,1-0.4V4.1c-0.2,0.1-0.3,0.2-0.5,0.3c-0.2,0.1-0.3,0.3-0.5,0.5V11.2
					z"/>
				<path id="Fill-11" class="st2" d="M22.4,10.6c0.2,0,0.3-0.1,0.5-0.1c0.2,0,0.3,0,0.5,0.1V3.5c-0.3-0.1-0.6-0.1-0.9,0
					c0,0-0.1,0-0.1,0V10.6z"/>
				<path id="Fill-13" class="st2" d="M23.4,20.6c-0.2,0-0.3,0.1-0.5,0.1c-0.2,0-0.3,0-0.5-0.1v5.3c0.1,0,0.1,0,0.2,0
					c0.3,0,0.6,0,0.8,0V20.6z"/>
				<path id="Fill-15" class="st2" d="M21.3,20.4c-0.4-0.1-0.7-0.3-1-0.4v5.8c0.3,0,0.7,0.1,1,0.1V20.4z"/>
				<path id="Fill-17" class="st2" d="M33,16.8c-0.1-0.3-0.6-2.1-0.6-2.3c-0.2-0.4-0.3-0.9-0.5-1.3c-0.5-1-1-2-1.6-2.9
					c-0.7-1.2-1.6-2.2-2.5-3.3c-0.4-0.5-0.9-1-1.4-1.4V12c0.9,0.9,1.5,2.2,1.5,3.6c0,1.4-0.6,2.7-1.5,3.6v6.4
					c0.3-0.1,0.6-0.1,0.8-0.2c0.9-0.2,1.8-0.5,2.6-0.9c0.7-0.4,1.4-0.8,1.9-1.4c0.4-0.4,0.7-1,0.9-1.5c0.3-0.8,0.5-1.6,0.5-2.5
					C33.3,18.3,33.2,17.6,33,16.8"/>
				<path id="Fill-19" class="st2" d="M19.3,19.2c-0.9-0.9-1.5-2.2-1.5-3.6c0-1.4,0.6-2.7,1.5-3.6V5.8c-0.4,0.4-0.7,0.7-1.1,1.1
					c-0.7,0.8-1.3,1.5-1.9,2.3c-1,1.4-1.9,2.9-2.6,4.4c-0.5,1.1-0.9,2.2-1.1,3.4c-0.2,1-0.2,2,0,2.9c0.1,0.5,0.5,1.3,0.8,1.9
					c0.3,0.6,0.7,1.1,1.2,1.6c0,0,0,0,0.1,0.1c0.9,0.7,2,1.2,3.1,1.6c0.5,0.2,1,0.3,1.6,0.4V19.2z"/>
				<path id="Fill-21" class="st1" d="M46,5.6c-0.2,0-0.4,0-0.6,0.1c-0.2,0.1-0.4,0.2-0.6,0.4c-0.2,0.2-0.3,0.4-0.4,0.7
					c-0.1,0.3-0.2,0.7-0.2,1.2c0,0.6,0.1,1,0.2,1.4c0.2,0.3,0.3,0.6,0.5,0.7c0.2,0.2,0.4,0.3,0.6,0.3c0.2,0,0.3,0.1,0.4,0.1
					c0.2,0,0.3,0,0.5-0.1c0.2-0.1,0.4-0.2,0.5-0.4c0.2-0.2,0.3-0.4,0.4-0.7c0.1-0.3,0.2-0.7,0.2-1.2c0-0.5-0.1-0.9-0.2-1.2
					c-0.1-0.3-0.3-0.6-0.4-0.7c-0.2-0.2-0.3-0.3-0.5-0.4C46.4,5.7,46.2,5.6,46,5.6L46,5.6z M44.3,13.6c0,0.5,0,0.9-0.1,1.2
					c0,0.3-0.1,0.5-0.3,0.7c-0.1,0.1-0.2,0.2-0.4,0.3c-0.2,0.1-0.4,0.2-0.6,0.2c-0.2,0-0.4,0-0.6-0.1c-0.2-0.1-0.3-0.2-0.5-0.3
					c-0.2-0.2-0.3-0.4-0.3-0.7c0-0.3,0-0.7,0-1.2V5.7c0-0.5,0-0.9,0-1.1c0-0.3,0.1-0.5,0.3-0.7c0.1-0.1,0.3-0.2,0.4-0.3
					c0.2-0.1,0.3-0.1,0.5-0.1c0.8,0,1.3,0.5,1.3,1.5c0.1-0.1,0.2-0.2,0.3-0.4c0.1-0.2,0.3-0.3,0.5-0.5c0.2-0.2,0.5-0.3,0.8-0.4
					c0.3-0.1,0.7-0.2,1.1-0.2c0.5,0,0.9,0.1,1.4,0.3c0.4,0.2,0.8,0.5,1.2,0.9C49.8,5,50,5.5,50.2,6.1c0.2,0.6,0.3,1.2,0.3,2
					c0,0.7-0.1,1.3-0.3,1.9c-0.2,0.6-0.5,1-0.8,1.4c-0.3,0.4-0.7,0.7-1.2,0.9c-0.4,0.2-0.9,0.3-1.5,0.3c-0.3,0-0.7,0-0.9-0.1
					c-0.3-0.1-0.5-0.2-0.7-0.3c-0.2-0.1-0.4-0.2-0.5-0.4c-0.1-0.1-0.3-0.3-0.4-0.4V13.6z"/>
				<path id="Fill-23" class="st1" d="M51.8,5.9c0-0.3,0-0.5,0-0.7c0-0.2,0-0.4,0-0.5c0-0.2,0.1-0.3,0.1-0.4C52,4.1,52.1,4,52.2,3.9
					c0.1-0.1,0.2-0.2,0.4-0.3c0.2-0.1,0.4-0.2,0.6-0.2c0.2,0,0.4,0,0.6,0.1c0.2,0.1,0.4,0.2,0.5,0.3c0.2,0.2,0.3,0.4,0.3,0.7
					c0,0.3,0.1,0.7,0.1,1.2v2.2c0,0.3,0,0.5,0,0.8c0,0.3,0.1,0.5,0.1,0.8c0.1,0.2,0.2,0.4,0.4,0.6c0.2,0.1,0.4,0.2,0.7,0.2
					c0.3,0,0.6-0.1,0.8-0.2c0.2-0.2,0.4-0.3,0.6-0.6c0.1-0.2,0.2-0.4,0.2-0.8c0-0.3,0-0.7,0-1.2V5.8c0-0.5,0-0.9,0.1-1.2
					c0-0.3,0.1-0.5,0.3-0.7c0.1-0.1,0.2-0.2,0.4-0.3c0.2-0.1,0.4-0.2,0.6-0.2c0.4,0,0.8,0.1,1,0.4c0.2,0.2,0.3,0.4,0.3,0.7
					c0,0.3,0.1,0.7,0.1,1.2v4.6c0,0.5,0,0.8,0,1.1c0,0.3-0.1,0.5-0.3,0.7c-0.1,0.1-0.2,0.2-0.4,0.3c-0.2,0.1-0.3,0.1-0.6,0.1
					c0,0-0.1,0-0.3,0c-0.1,0-0.3-0.1-0.5-0.2c-0.2-0.1-0.3-0.3-0.4-0.5c-0.1-0.2-0.2-0.5-0.2-0.9c-0.1,0.1-0.2,0.2-0.4,0.4
					c-0.2,0.2-0.4,0.3-0.6,0.5c-0.3,0.2-0.6,0.3-0.9,0.4c-0.4,0.1-0.8,0.2-1.2,0.2c-0.3,0-0.5,0-0.8-0.1c-0.2-0.1-0.5-0.2-0.7-0.3
					c-0.2-0.1-0.4-0.3-0.6-0.4c-0.2-0.2-0.3-0.4-0.4-0.6c-0.2-0.4-0.3-0.7-0.3-1.1c0-0.3-0.1-0.6-0.1-0.9V5.9z"/>
				<path id="Fill-25" class="st1" d="M70.7,10.3c0,0.5,0,0.9-0.1,1.2c0,0.3-0.1,0.5-0.3,0.7c-0.1,0.1-0.2,0.2-0.4,0.3
					c-0.2,0.1-0.4,0.2-0.6,0.2c-0.4,0-0.8-0.1-1.1-0.4c-0.2-0.2-0.3-0.4-0.3-0.7c0-0.3-0.1-0.7-0.1-1.2V7.8c0-0.2,0-0.4,0-0.7
					c0-0.2-0.1-0.5-0.1-0.7c-0.1-0.2-0.2-0.4-0.4-0.5c-0.2-0.1-0.4-0.2-0.8-0.2c-0.3,0-0.6,0.1-0.8,0.3c-0.3,0.2-0.5,0.5-0.6,0.9
					c0,0.1,0,0.2-0.1,0.3c0,0.1,0,0.3,0,0.4c0,0.1,0,0.3,0,0.4v0.3v1.9V11c0,0.3,0,0.5-0.1,0.8c-0.1,0.2-0.2,0.4-0.4,0.6
					c-0.2,0.2-0.5,0.3-0.9,0.3c-0.3,0-0.6-0.1-0.8-0.2c-0.2-0.1-0.3-0.3-0.4-0.5c-0.1-0.2-0.1-0.5-0.2-0.7c0-0.3,0-0.6,0-0.9V5.7
					c0-0.5,0-0.9,0-1.1c0-0.3,0.1-0.5,0.3-0.7c0.1-0.1,0.2-0.2,0.4-0.3c0.1-0.1,0.3-0.1,0.6-0.1c0,0,0.1,0,0.3,0
					c0.1,0,0.3,0.1,0.4,0.2c0.2,0.1,0.3,0.3,0.4,0.5c0.1,0.2,0.2,0.5,0.2,0.9c0.4-0.5,0.8-0.9,1.3-1.2c0.5-0.3,1-0.4,1.7-0.4
					c0.2,0,0.4,0,0.7,0.1c0.3,0,0.5,0.1,0.8,0.2c0.3,0.1,0.5,0.3,0.7,0.5c0.2,0.2,0.4,0.5,0.5,0.8c0.1,0.2,0.1,0.4,0.2,0.6
					c0,0.2,0.1,0.4,0.1,0.6c0,0.2,0,0.4,0,0.6c0,0.2,0,0.3,0,0.4V10.3z"/>
				<g id="Group-29" transform="translate(72.595506, 0.039876)">
					<g id="Clip-28">
					</g>
					<defs>
						<filter id="Adobe_OpacityMaskFilter" filterUnits="userSpaceOnUse" x="0.1" y="0.1" width="8.3" height="12.5">
							<feColorMatrix  type="matrix" values="1 0 0 0 0  0 1 0 0 0  0 0 1 0 0  0 0 0 1 0"/>
						</filter>
					</defs>
					<mask maskUnits="userSpaceOnUse" x="0.1" y="0.1" width="8.3" height="12.5" id="mask-2_1_">
						<g class="st3">
							<polygon id="path-1_1_" class="st1" points="0.1,0.1 8.5,0.1 8.5,12.6 0.1,12.6 							"/>
						</g>
					</mask>
					<path id="Fill-27" class="st4" d="M4.8,4.6C5,4.3,5.2,4.1,5.4,4c0.2-0.2,0.3-0.3,0.4-0.3C5.9,3.5,6,3.5,6.1,3.5
						c0.1,0,0.2,0,0.3,0c0.3,0,0.6,0.1,0.9,0.3C7.5,4,7.7,4.3,7.7,4.6c0,0.1,0,0.3-0.1,0.5C7.5,5.3,7.3,5.5,7,5.8l-1,1L8,10
						c0.2,0.4,0.4,0.6,0.4,0.8c0.1,0.2,0.1,0.3,0.1,0.5c0,0.2,0,0.4-0.1,0.5C8.3,12,8.1,12.1,8,12.2c-0.1,0.1-0.3,0.2-0.4,0.3
						c-0.2,0.1-0.3,0.1-0.5,0.1c-0.4,0-0.7-0.1-0.9-0.4c-0.2-0.3-0.4-0.6-0.6-0.9L4.2,8.7L3,9.8v0.4c0,0.5,0,0.9,0,1.2
						c0,0.3-0.1,0.5-0.3,0.7c-0.1,0.1-0.3,0.2-0.4,0.3c-0.2,0.1-0.4,0.1-0.6,0.1c-0.4,0-0.8-0.1-1.1-0.4c-0.2-0.2-0.3-0.4-0.3-0.7
						c0-0.3-0.1-0.7-0.1-1.2V1.9c0,0,0-0.1,0-0.2c0-0.1,0-0.2,0-0.4c0-0.1,0.1-0.3,0.1-0.4c0.1-0.1,0.1-0.2,0.2-0.3
						C0.6,0.4,0.8,0.3,1,0.2c0.2-0.1,0.4-0.1,0.6-0.1c0.2,0,0.4,0,0.6,0.1c0.2,0.1,0.4,0.2,0.5,0.3C2.8,0.7,2.9,1,3,1.3
						C3,1.6,3,2,3,2.5v4.1L4.8,4.6z"/>
				</g>
				<path id="Fill-30" class="st1" d="M89.7,8c0,0.3,0,0.5,0.1,0.8C89.8,9,89.9,9.3,90,9.5c0.1,0.2,0.3,0.4,0.5,0.5
					c0.2,0.1,0.5,0.2,0.8,0.2c0.5,0,0.9-0.2,1.2-0.6c0.3-0.4,0.5-0.9,0.5-1.6c0-0.8-0.2-1.4-0.5-1.8c-0.3-0.4-0.7-0.6-1.2-0.6
					c-0.4,0-0.7,0.1-1,0.3c-0.2,0.2-0.4,0.4-0.5,0.7c-0.1,0.3-0.2,0.5-0.2,0.8C89.7,7.7,89.7,7.9,89.7,8L89.7,8z M95.9,11.5
					c0,0.7-0.1,1.3-0.2,1.9c-0.1,0.6-0.3,1-0.6,1.4c-0.3,0.4-0.8,0.7-1.4,0.9c-0.6,0.2-1.4,0.3-2.3,0.3c-0.6,0-1.2,0-1.7-0.1
					c-0.6-0.1-1.1-0.3-1.5-0.6c-0.2-0.1-0.4-0.3-0.6-0.4c-0.1-0.1-0.2-0.3-0.3-0.4c-0.1-0.1-0.1-0.3-0.1-0.4c0-0.1,0-0.2,0-0.3
					c0-0.4,0.1-0.6,0.4-0.8c0.3-0.2,0.5-0.3,0.8-0.3c0.3,0,0.6,0.1,0.8,0.2c0.2,0.2,0.4,0.4,0.6,0.6c0.2,0.2,0.4,0.3,0.6,0.4
					c0.2,0.1,0.5,0.1,0.9,0.1c0.4,0,0.8,0,1-0.1c0.2-0.1,0.4-0.2,0.5-0.4c0.1-0.2,0.2-0.4,0.2-0.7c0-0.3,0-0.6,0.1-0.9
					c0-0.2,0-0.4,0-0.5c0-0.1,0-0.3,0-0.4c-0.1,0.1-0.2,0.2-0.3,0.4c-0.1,0.2-0.3,0.3-0.5,0.4c-0.2,0.1-0.5,0.3-0.8,0.4
					c-0.3,0.1-0.6,0.2-1,0.2c-0.6,0-1.1-0.1-1.5-0.3c-0.4-0.2-0.8-0.5-1.1-0.9c-0.3-0.4-0.6-0.9-0.7-1.4c-0.2-0.6-0.2-1.2-0.2-1.8
					c0-0.4,0-0.8,0.1-1.2C87,6.3,87.1,6,87.2,5.7c0.1-0.2,0.2-0.5,0.3-0.6c0.1-0.2,0.2-0.3,0.3-0.4c0.7-0.8,1.6-1.2,2.7-1.2
					c0.4,0,0.8,0.1,1.1,0.2c0.3,0.1,0.6,0.3,0.8,0.4c0.2,0.2,0.4,0.3,0.5,0.5c0.1,0.2,0.3,0.3,0.3,0.4c0-0.2,0-0.3,0.1-0.4
					c0-0.1,0-0.2,0.1-0.2c0-0.1,0-0.1,0.1-0.2c0,0,0-0.1,0.1-0.1c0.1-0.2,0.3-0.4,0.5-0.5c0.2-0.1,0.4-0.1,0.6-0.1
					c0.1,0,0.2,0,0.3,0c0.1,0,0.2,0.1,0.4,0.1c0.1,0.1,0.2,0.2,0.3,0.3c0.1,0.1,0.2,0.3,0.3,0.5c0,0.1,0,0.2,0.1,0.2
					c0,0.1,0,0.2,0,0.3c0,0.1,0,0.2,0,0.4v0.6V11.5z"/>
				<path id="Fill-32" class="st1" d="M99.8,8c0,0.3,0,0.6,0.1,0.9c0.1,0.3,0.2,0.6,0.3,0.8c0.1,0.2,0.3,0.4,0.6,0.6
					c0.2,0.2,0.6,0.2,0.9,0.2c0.2,0,0.5,0,0.7-0.1c0.2-0.1,0.4-0.2,0.6-0.4c0.2-0.2,0.3-0.5,0.4-0.8c0.1-0.3,0.2-0.7,0.2-1.1
					c0-0.3,0-0.6-0.1-0.9c-0.1-0.3-0.2-0.6-0.3-0.8c-0.2-0.2-0.3-0.4-0.6-0.6c-0.2-0.1-0.5-0.2-0.9-0.2c-0.3,0-0.6,0.1-0.9,0.2
					c-0.2,0.1-0.4,0.3-0.6,0.5c-0.2,0.2-0.3,0.5-0.3,0.8C99.8,7.4,99.8,7.7,99.8,8 M96.9,8c0-0.5,0.1-1,0.3-1.5
					c0.2-0.5,0.4-1,0.8-1.5c0.4-0.4,0.9-0.8,1.5-1.1c0.6-0.3,1.3-0.4,2.2-0.4c0.8,0,1.6,0.1,2.2,0.4c0.6,0.3,1.1,0.6,1.5,1
					c0.4,0.4,0.7,0.9,0.9,1.5c0.2,0.5,0.3,1.1,0.3,1.6s-0.1,1.1-0.3,1.6c-0.2,0.6-0.5,1-0.9,1.5c-0.4,0.4-0.9,0.8-1.5,1.1
					c-0.6,0.3-1.3,0.4-2.2,0.4c-0.7,0-1.4-0.1-2-0.3c-0.6-0.2-1.1-0.5-1.5-0.9c-0.4-0.4-0.7-0.9-1-1.5C97,9.3,96.9,8.7,96.9,8"/>
				<path id="Fill-34" class="st1" d="M113.6,7.3c0-0.6-0.1-1-0.4-1.4c-0.3-0.4-0.7-0.5-1.2-0.5c-0.4,0-0.6,0.1-0.9,0.2
					c-0.2,0.2-0.4,0.4-0.5,0.6c-0.1,0.2-0.2,0.4-0.2,0.6c0,0.2-0.1,0.4-0.1,0.5H113.6z M110.3,8.8c0,0.4,0.1,0.7,0.2,1
					c0.1,0.2,0.3,0.4,0.5,0.6c0.2,0.1,0.4,0.2,0.6,0.3c0.2,0.1,0.4,0.1,0.5,0.1c0.2,0,0.5,0,0.7-0.1c0.2-0.1,0.4-0.1,0.5-0.2
					c0.2-0.1,0.3-0.2,0.4-0.3c0.1-0.1,0.2-0.2,0.3-0.2c0.2-0.1,0.4-0.2,0.5-0.4c0.2-0.1,0.4-0.2,0.6-0.2c0.3,0,0.6,0.1,0.8,0.3
					c0.2,0.2,0.3,0.4,0.3,0.7c0,0.2-0.1,0.5-0.3,0.8c-0.2,0.3-0.4,0.5-0.8,0.7c-0.3,0.2-0.8,0.4-1.3,0.5c-0.5,0.1-1.1,0.2-1.8,0.2
					c-0.9,0-1.7-0.1-2.3-0.4c-0.6-0.3-1.1-0.6-1.5-1c-0.4-0.4-0.6-0.9-0.8-1.5c-0.2-0.5-0.2-1.1-0.2-1.7c0-0.5,0.1-1,0.2-1.5
					c0.1-0.5,0.4-1,0.7-1.5c0.4-0.5,0.8-0.8,1.4-1.1c0.6-0.3,1.3-0.5,2.2-0.5c0.8,0,1.5,0.1,2.1,0.4c0.6,0.3,1,0.6,1.3,1
					c0.3,0.4,0.6,0.8,0.7,1.2c0.1,0.4,0.2,0.8,0.2,1.1c0,0.1,0,0.2,0,0.3c0,0.1-0.1,0.3-0.1,0.4c-0.1,0.1-0.2,0.3-0.3,0.4
					c-0.1,0.1-0.3,0.2-0.5,0.3c-0.2,0.1-0.4,0.1-0.7,0.1c-0.3,0-0.5,0-0.7,0H110.3z"/>
				<path id="Fill-36" class="st1" d="M125.5,9.6c0,0.3-0.1,0.6-0.2,0.9c-0.1,0.3-0.3,0.7-0.6,1c-0.3,0.3-0.7,0.6-1.2,0.8
					c-0.5,0.2-1.2,0.3-2.1,0.3c-0.4,0-0.8,0-1.1-0.1c-0.3,0-0.6-0.1-0.8-0.2c-0.2-0.1-0.4-0.1-0.6-0.2c-0.2-0.1-0.3-0.2-0.4-0.2
					c-0.1,0-0.1-0.1-0.3-0.2c-0.1-0.1-0.2-0.2-0.4-0.4c-0.1-0.1-0.2-0.3-0.3-0.5c-0.1-0.2-0.1-0.4-0.1-0.6c0-0.3,0.1-0.5,0.3-0.8
					c0.2-0.2,0.4-0.4,0.8-0.4c0.3,0,0.5,0.1,0.6,0.2c0.2,0.1,0.3,0.4,0.6,0.7c0.2,0.3,0.5,0.5,0.9,0.7c0.4,0.1,0.7,0.2,1.1,0.2
					c0.4,0,0.7-0.1,0.9-0.3c0.2-0.2,0.3-0.4,0.3-0.5c0-0.1,0-0.2-0.1-0.3c-0.1-0.1-0.2-0.2-0.4-0.3c-0.1-0.1-0.3-0.1-0.5-0.2
					c-0.2-0.1-0.3-0.1-0.5-0.1c-0.2,0-0.4-0.1-0.6-0.2c-0.2-0.1-0.5-0.1-0.7-0.2c-0.2-0.1-0.5-0.2-0.7-0.3c-0.2-0.1-0.4-0.2-0.5-0.3
					c-0.4-0.2-0.7-0.5-1-0.9c-0.3-0.3-0.4-0.7-0.4-1.2c0-0.2,0.1-0.5,0.2-0.8c0.1-0.3,0.3-0.6,0.6-0.9c0.3-0.3,0.6-0.5,1.1-0.7
					c0.5-0.2,1.1-0.3,1.8-0.3c0.7,0,1.3,0.1,1.9,0.2c0.5,0.1,0.9,0.3,1.2,0.5c0.3,0.2,0.5,0.4,0.7,0.7c0.1,0.2,0.2,0.5,0.2,0.7
					c0,0.2-0.1,0.5-0.2,0.7c-0.2,0.2-0.4,0.3-0.8,0.3c-0.3,0-0.5-0.1-0.7-0.2c-0.2-0.1-0.4-0.3-0.7-0.5c-0.2-0.2-0.4-0.3-0.7-0.5
					c-0.3-0.1-0.6-0.2-0.9-0.2c-0.3,0-0.5,0.1-0.7,0.2c-0.2,0.1-0.4,0.3-0.4,0.5c0,0.3,0.1,0.5,0.4,0.6c0.3,0.1,0.8,0.3,1.5,0.4
					c0.4,0.1,0.9,0.2,1.3,0.3c0.4,0.1,0.8,0.3,1.1,0.5c0.3,0.2,0.6,0.5,0.8,0.8C125.4,8.8,125.5,9.2,125.5,9.6"/>
				<path id="Fill-38" class="st1" d="M137.1,8.3c-0.1,0-0.2,0.1-0.3,0.1c-0.2,0-0.3,0.1-0.5,0.1c-0.2,0-0.4,0.1-0.5,0.1
					c-0.2,0-0.3,0.1-0.3,0.1c-0.4,0.1-0.8,0.3-1,0.4c-0.2,0.1-0.3,0.4-0.3,0.7c0,0.2,0.1,0.5,0.3,0.7c0.2,0.2,0.5,0.3,0.9,0.3
					c0.1,0,0.2,0,0.4,0c0.2,0,0.3-0.1,0.5-0.2c0.2-0.1,0.3-0.2,0.5-0.3c0.1-0.1,0.3-0.3,0.4-0.5c0.1-0.2,0.2-0.5,0.2-0.7
					C137.1,8.9,137.1,8.6,137.1,8.3L137.1,8.3z M136.3,7c0.2-0.1,0.4-0.1,0.5-0.1c0.1,0,0.2-0.1,0.3-0.1c0-0.2,0-0.4-0.1-0.5
					c0-0.2-0.1-0.3-0.2-0.4c-0.1-0.1-0.2-0.2-0.4-0.3c-0.2-0.1-0.4-0.1-0.7-0.1c-0.3,0-0.6,0-0.9,0.1c-0.3,0.1-0.6,0.3-0.8,0.6
					c-0.2,0.3-0.3,0.5-0.5,0.6c-0.2,0.2-0.4,0.3-0.7,0.3c-0.1,0-0.2,0-0.4-0.1c-0.1,0-0.3-0.1-0.4-0.2c-0.1-0.1-0.2-0.2-0.3-0.3
					c-0.1-0.1-0.1-0.3-0.1-0.5c0-0.2,0-0.4,0.1-0.6c0.1-0.2,0.2-0.4,0.3-0.5c0.1-0.2,0.2-0.3,0.4-0.4c0.1-0.1,0.3-0.2,0.4-0.3
					c0.2-0.1,0.3-0.2,0.5-0.3c0.2-0.1,0.4-0.2,0.6-0.2c0.2-0.1,0.5-0.1,0.8-0.1c0.3,0,0.6,0,1,0c0.8,0,1.4,0.1,1.9,0.2
					c0.5,0.1,0.9,0.3,1.3,0.6c0.3,0.3,0.6,0.6,0.7,1c0.1,0.4,0.2,1,0.2,1.6v2.4c0,0.2,0,0.4,0,0.6c0,0.2,0.1,0.4,0.1,0.6
					c0.1,0.2,0.1,0.3,0.2,0.4c0,0.1,0.1,0.2,0.1,0.3c0,0.1,0,0.1,0,0.2c0,0,0,0.1,0,0.2c0,0.3-0.1,0.5-0.4,0.8
					c-0.3,0.2-0.6,0.4-1,0.4c-0.4,0-0.7-0.1-0.9-0.3c-0.2-0.2-0.4-0.6-0.6-1c-0.5,0.4-1,0.7-1.6,1c-0.5,0.2-1.1,0.4-1.7,0.4
					c-0.6,0-1-0.1-1.4-0.2c-0.4-0.2-0.7-0.4-0.9-0.6c-0.2-0.3-0.4-0.5-0.5-0.8c-0.1-0.3-0.2-0.6-0.2-0.9c0-0.5,0.1-0.8,0.3-1.1
					c0.2-0.3,0.4-0.5,0.6-0.7c0.3-0.2,0.5-0.3,0.8-0.4c0.3-0.1,0.5-0.2,0.7-0.2L136.3,7z"/>
				<path id="Fill-40" class="st1" d="M144.1,8.1c0,0.1,0,0.3,0,0.5c0,0.3,0.1,0.5,0.2,0.8c0.1,0.3,0.3,0.5,0.6,0.7
					c0.3,0.2,0.6,0.3,1.1,0.3c0.4,0,0.8-0.1,1-0.3c0.3-0.2,0.5-0.4,0.7-0.6c0.1-0.2,0.3-0.3,0.4-0.4c0.1-0.1,0.2-0.2,0.3-0.3
					c0.1-0.1,0.2-0.1,0.3-0.2c0.1,0,0.2-0.1,0.4-0.1c0.3,0,0.6,0.1,0.8,0.3c0.2,0.2,0.3,0.5,0.3,0.8c0,0.2-0.1,0.4-0.2,0.8
					c-0.1,0.3-0.3,0.6-0.6,1c-0.3,0.3-0.7,0.6-1.3,0.8c-0.6,0.2-1.3,0.4-2.1,0.4c-0.6,0-1.2-0.1-1.7-0.2c-0.6-0.2-1.1-0.4-1.5-0.8
					c-0.3-0.3-0.5-0.5-0.7-0.8c-0.2-0.3-0.3-0.6-0.4-0.9c-0.1-0.3-0.2-0.6-0.2-0.9c0-0.3-0.1-0.6-0.1-0.8c0-0.3,0-0.5,0.1-0.8
					c0-0.3,0.1-0.6,0.2-0.9c0.1-0.3,0.2-0.6,0.4-0.9c0.2-0.3,0.4-0.6,0.6-0.8c0.2-0.1,0.3-0.3,0.5-0.4c0.2-0.1,0.4-0.3,0.7-0.4
					c0.3-0.1,0.6-0.2,0.9-0.3c0.4-0.1,0.8-0.1,1.2-0.1c0.7,0,1.3,0.1,1.7,0.2c0.4,0.1,0.8,0.3,1.1,0.5c0.1,0.1,0.2,0.2,0.4,0.3
					c0.1,0.1,0.3,0.3,0.4,0.4c0.1,0.2,0.2,0.3,0.3,0.5c0.1,0.2,0.1,0.4,0.1,0.6c0,0.3-0.1,0.6-0.4,0.9c-0.2,0.2-0.6,0.3-0.9,0.3
					c-0.3,0-0.5-0.1-0.7-0.2c-0.2-0.2-0.4-0.4-0.6-0.8c-0.1-0.1-0.3-0.3-0.6-0.5c-0.3-0.2-0.6-0.3-1-0.3c-0.5,0-0.9,0.2-1.3,0.6
					C144.3,6.6,144.1,7.2,144.1,8.1"/>
				<path id="Fill-42" class="st1" d="M154,8c0,0.3,0,0.6,0.1,0.9c0.1,0.3,0.2,0.6,0.3,0.8c0.1,0.2,0.3,0.4,0.6,0.6
					c0.2,0.2,0.6,0.2,0.9,0.2c0.2,0,0.5,0,0.7-0.1c0.2-0.1,0.4-0.2,0.6-0.4c0.2-0.2,0.3-0.5,0.4-0.8c0.1-0.3,0.2-0.7,0.2-1.1
					c0-0.3,0-0.6-0.1-0.9c-0.1-0.3-0.2-0.6-0.3-0.8c-0.2-0.2-0.3-0.4-0.6-0.6c-0.2-0.1-0.5-0.2-0.9-0.2c-0.3,0-0.6,0.1-0.9,0.2
					c-0.2,0.1-0.4,0.3-0.6,0.5c-0.2,0.2-0.3,0.5-0.3,0.8C154,7.4,154,7.7,154,8 M151.2,8c0-0.5,0.1-1,0.3-1.5c0.2-0.5,0.4-1,0.8-1.5
					c0.4-0.4,0.9-0.8,1.5-1.1c0.6-0.3,1.3-0.4,2.2-0.4c0.8,0,1.6,0.1,2.2,0.4c0.6,0.3,1.1,0.6,1.5,1c0.4,0.4,0.7,0.9,0.9,1.5
					c0.2,0.5,0.3,1.1,0.3,1.6s-0.1,1.1-0.3,1.6c-0.2,0.6-0.5,1-0.9,1.5c-0.4,0.4-0.9,0.8-1.5,1.1c-0.6,0.3-1.3,0.4-2.2,0.4
					c-0.7,0-1.4-0.1-2-0.3c-0.6-0.2-1.1-0.5-1.5-0.9c-0.4-0.4-0.7-0.9-1-1.5C151.3,9.3,151.2,8.7,151.2,8"/>
				<path id="Fill-44" class="st1" d="M161.9,5.9c0-0.3,0-0.5,0-0.7s0-0.4,0-0.5c0-0.2,0.1-0.3,0.1-0.4c0.1-0.1,0.1-0.2,0.2-0.3
					c0.1-0.1,0.2-0.2,0.4-0.3c0.2-0.1,0.4-0.2,0.6-0.2c0.2,0,0.4,0,0.6,0.1c0.2,0.1,0.4,0.2,0.5,0.3c0.2,0.2,0.3,0.4,0.3,0.7
					c0,0.3,0.1,0.7,0.1,1.2v2.2c0,0.3,0,0.5,0,0.8c0,0.3,0.1,0.5,0.1,0.8c0.1,0.2,0.2,0.4,0.4,0.6c0.2,0.1,0.4,0.2,0.7,0.2
					c0.3,0,0.6-0.1,0.8-0.2c0.2-0.2,0.4-0.3,0.6-0.6c0.1-0.2,0.2-0.4,0.2-0.8c0-0.3,0-0.7,0-1.2V5.8c0-0.5,0-0.9,0.1-1.2
					c0-0.3,0.1-0.5,0.3-0.7c0.1-0.1,0.2-0.2,0.4-0.3c0.2-0.1,0.4-0.2,0.6-0.2c0.4,0,0.8,0.1,1,0.4c0.2,0.2,0.3,0.4,0.3,0.7
					c0,0.3,0.1,0.7,0.1,1.2v4.6c0,0.5,0,0.8,0,1.1c0,0.3-0.1,0.5-0.3,0.7c-0.1,0.1-0.2,0.2-0.4,0.3c-0.2,0.1-0.3,0.1-0.6,0.1
					c0,0-0.1,0-0.3,0c-0.1,0-0.3-0.1-0.5-0.2c-0.2-0.1-0.3-0.3-0.4-0.5c-0.1-0.2-0.2-0.5-0.2-0.9c-0.1,0.1-0.2,0.2-0.4,0.4
					c-0.2,0.2-0.4,0.3-0.6,0.5c-0.3,0.2-0.6,0.3-0.9,0.4c-0.4,0.1-0.8,0.2-1.2,0.2c-0.3,0-0.5,0-0.8-0.1c-0.2-0.1-0.5-0.2-0.7-0.3
					c-0.2-0.1-0.4-0.3-0.6-0.4c-0.2-0.2-0.3-0.4-0.4-0.6c-0.2-0.4-0.3-0.7-0.3-1.1c0-0.3-0.1-0.6-0.1-0.9V5.9z"/>
				<path id="Fill-46" class="st1" d="M180.1,9.6c0,0.3-0.1,0.6-0.2,0.9c-0.1,0.3-0.3,0.7-0.6,1c-0.3,0.3-0.7,0.6-1.2,0.8
					c-0.5,0.2-1.2,0.3-2.1,0.3c-0.4,0-0.8,0-1.1-0.1c-0.3,0-0.6-0.1-0.8-0.2c-0.2-0.1-0.4-0.1-0.6-0.2c-0.2-0.1-0.3-0.2-0.4-0.2
					c-0.1,0-0.1-0.1-0.3-0.2c-0.1-0.1-0.2-0.2-0.4-0.4c-0.1-0.1-0.2-0.3-0.3-0.5c-0.1-0.2-0.1-0.4-0.1-0.6c0-0.3,0.1-0.5,0.3-0.8
					c0.2-0.2,0.4-0.4,0.8-0.4c0.3,0,0.5,0.1,0.6,0.2c0.2,0.1,0.3,0.4,0.6,0.7c0.2,0.3,0.5,0.5,0.9,0.7c0.4,0.1,0.7,0.2,1.1,0.2
					c0.4,0,0.7-0.1,0.9-0.3c0.2-0.2,0.3-0.4,0.3-0.5c0-0.1,0-0.2-0.1-0.3c-0.1-0.1-0.2-0.2-0.4-0.3c-0.1-0.1-0.3-0.1-0.5-0.2
					c-0.2-0.1-0.3-0.1-0.5-0.1c-0.2,0-0.4-0.1-0.6-0.2c-0.2-0.1-0.5-0.1-0.7-0.2c-0.2-0.1-0.5-0.2-0.7-0.3c-0.2-0.1-0.4-0.2-0.5-0.3
					c-0.4-0.2-0.7-0.5-1-0.9C172.1,7,172,6.6,172,6.2c0-0.2,0.1-0.5,0.2-0.8c0.1-0.3,0.3-0.6,0.6-0.9c0.3-0.3,0.6-0.5,1.1-0.7
					c0.5-0.2,1.1-0.3,1.8-0.3c0.7,0,1.3,0.1,1.9,0.2c0.5,0.1,0.9,0.3,1.2,0.5c0.3,0.2,0.5,0.4,0.7,0.7c0.1,0.2,0.2,0.5,0.2,0.7
					c0,0.2-0.1,0.5-0.2,0.7c-0.2,0.2-0.4,0.3-0.8,0.3c-0.3,0-0.5-0.1-0.7-0.2c-0.2-0.1-0.4-0.3-0.7-0.5c-0.2-0.2-0.4-0.3-0.7-0.5
					c-0.3-0.1-0.6-0.2-0.9-0.2c-0.3,0-0.5,0.1-0.7,0.2c-0.2,0.1-0.4,0.3-0.4,0.5c0,0.3,0.1,0.5,0.4,0.6c0.3,0.1,0.8,0.3,1.5,0.4
					c0.4,0.1,0.9,0.2,1.3,0.3c0.4,0.1,0.8,0.3,1.1,0.5c0.3,0.2,0.6,0.5,0.8,0.8C180,8.8,180.1,9.2,180.1,9.6"/>
				<path id="Fill-48" class="st1" d="M184.6,9.1c0,0.4,0,0.7,0.1,1c0.1,0.2,0.3,0.4,0.6,0.4c0.3,0,0.5,0,0.7-0.1
					c0.2-0.1,0.4-0.1,0.5-0.1c0.2,0,0.5,0.1,0.6,0.3c0.2,0.2,0.3,0.4,0.3,0.7c0,0.3-0.1,0.6-0.3,0.7c-0.2,0.2-0.4,0.3-0.6,0.4
					c-0.4,0.1-0.7,0.2-1.1,0.2c-0.3,0-0.6,0.1-0.9,0.1c-0.7,0-1.2-0.1-1.6-0.3c-0.4-0.2-0.7-0.4-0.8-0.7c-0.2-0.3-0.3-0.7-0.3-1.1
					c0-0.4-0.1-0.8-0.1-1.3V5.7c-0.2,0-0.4,0-0.6-0.1c-0.2,0-0.3-0.1-0.4-0.2c-0.1-0.1-0.2-0.2-0.2-0.3c-0.1-0.1-0.1-0.3-0.1-0.5
					c0-0.2,0.1-0.4,0.2-0.6c0.1-0.2,0.2-0.3,0.4-0.3c0.1-0.1,0.3-0.1,0.4-0.1c0.1,0,0.3,0,0.4,0V2.4c0-0.2,0-0.4,0-0.6
					c0-0.2,0-0.3,0-0.4c0-0.1,0-0.2,0.1-0.3c0-0.1,0.1-0.2,0.1-0.3c0.1-0.2,0.2-0.4,0.5-0.5c0.2-0.1,0.5-0.2,0.8-0.2
					c0.3,0,0.5,0.1,0.8,0.2c0.2,0.1,0.4,0.3,0.5,0.5c0.1,0.2,0.1,0.3,0.2,0.5c0,0.2,0,0.4,0,0.8v1.6h0.6c0.1,0,0.3,0,0.4,0
					c0.1,0,0.2,0,0.3,0c0.1,0,0.1,0,0.2,0.1c0.1,0.1,0.2,0.2,0.3,0.3c0.1,0.2,0.2,0.3,0.2,0.6c0,0.2,0,0.4-0.1,0.5
					c-0.1,0.2-0.2,0.3-0.4,0.3c-0.1,0-0.1,0.1-0.2,0.1c-0.1,0-0.1,0-0.2,0.1c-0.1,0-0.2,0-0.4,0h-0.6V9.1z"/>
				<g id="Group-52" transform="translate(187.550562, 0.039876)">
					<g id="Clip-51">
					</g>
					<defs>
						<filter id="Adobe_OpacityMaskFilter_1_" filterUnits="userSpaceOnUse" x="0" y="0.1" width="2.8" height="12.5">
							<feColorMatrix  type="matrix" values="1 0 0 0 0  0 1 0 0 0  0 0 1 0 0  0 0 0 1 0"/>
						</filter>
					</defs>
					<mask maskUnits="userSpaceOnUse" x="0" y="0.1" width="2.8" height="12.5" id="mask-4_1_">
						<g class="st5">
							<polygon id="path-3_1_" class="st1" points="0,0.1 2.9,0.1 2.9,12.6 0,12.6 							"/>
						</g>
					</mask>
					<path id="Fill-50" class="st6" d="M2.8,1.4c0,0.4-0.1,0.7-0.4,0.9C2.1,2.6,1.8,2.7,1.5,2.7S0.8,2.6,0.5,2.3
						C0.3,2.1,0.1,1.8,0.1,1.4s0.1-0.7,0.4-0.9c0.3-0.3,0.6-0.4,0.9-0.4s0.7,0.1,0.9,0.4C2.6,0.8,2.8,1.1,2.8,1.4L2.8,1.4z
						 M2.9,10.2c0,0.5,0,0.9-0.1,1.2c0,0.3-0.1,0.5-0.3,0.7c-0.1,0.1-0.2,0.2-0.4,0.3c-0.2,0.1-0.4,0.1-0.6,0.1
						c-0.2,0-0.4,0-0.6-0.1c-0.2-0.1-0.3-0.2-0.5-0.3c-0.2-0.2-0.3-0.4-0.3-0.7c0-0.3,0-0.7,0-1.2V5.8c0-0.2,0-0.5,0-0.7
						c0-0.2,0-0.4,0-0.5c0-0.2,0.1-0.3,0.1-0.4C0.3,4.1,0.3,4,0.4,3.9c0.1-0.1,0.3-0.2,0.4-0.3C1,3.5,1.2,3.4,1.5,3.4
						c0.1,0,0.2,0,0.3,0c0.1,0,0.3,0.1,0.4,0.2C2.3,3.7,2.5,3.8,2.6,4c0.1,0.2,0.2,0.4,0.2,0.6c0,0.1,0,0.2,0,0.2c0,0.1,0,0.2,0,0.2
						v0.3v0.4V10.2z"/>
				</g>
				<path id="Fill-53" class="st1" d="M194.7,8.1c0,0.1,0,0.3,0,0.5c0,0.3,0.1,0.5,0.2,0.8c0.1,0.3,0.3,0.5,0.6,0.7
					c0.3,0.2,0.6,0.3,1.1,0.3c0.4,0,0.8-0.1,1-0.3c0.3-0.2,0.5-0.4,0.7-0.6c0.1-0.2,0.3-0.3,0.4-0.4c0.1-0.1,0.2-0.2,0.3-0.3
					c0.1-0.1,0.2-0.1,0.3-0.2c0.1,0,0.2-0.1,0.4-0.1c0.3,0,0.6,0.1,0.8,0.3c0.2,0.2,0.3,0.5,0.3,0.8c0,0.2-0.1,0.4-0.2,0.8
					c-0.1,0.3-0.3,0.6-0.6,1c-0.3,0.3-0.7,0.6-1.3,0.8c-0.6,0.2-1.3,0.4-2.1,0.4c-0.6,0-1.2-0.1-1.7-0.2c-0.6-0.2-1.1-0.4-1.5-0.8
					c-0.3-0.3-0.5-0.5-0.7-0.8c-0.2-0.3-0.3-0.6-0.4-0.9c-0.1-0.3-0.2-0.6-0.2-0.9c0-0.3-0.1-0.6-0.1-0.8c0-0.3,0-0.5,0.1-0.8
					c0-0.3,0.1-0.6,0.2-0.9c0.1-0.3,0.2-0.6,0.4-0.9c0.2-0.3,0.4-0.6,0.6-0.8c0.2-0.1,0.3-0.3,0.5-0.4c0.2-0.1,0.4-0.3,0.7-0.4
					c0.3-0.1,0.6-0.2,0.9-0.3c0.4-0.1,0.8-0.1,1.2-0.1c0.7,0,1.3,0.1,1.7,0.2c0.4,0.1,0.8,0.3,1.1,0.5c0.1,0.1,0.2,0.2,0.4,0.3
					c0.1,0.1,0.3,0.3,0.4,0.4c0.1,0.2,0.2,0.3,0.3,0.5c0.1,0.2,0.1,0.4,0.1,0.6c0,0.3-0.1,0.6-0.4,0.9c-0.2,0.2-0.6,0.3-0.9,0.3
					c-0.3,0-0.5-0.1-0.7-0.2c-0.2-0.2-0.4-0.4-0.6-0.8c-0.1-0.1-0.3-0.3-0.6-0.5c-0.3-0.2-0.6-0.3-1-0.3c-0.5,0-0.9,0.2-1.3,0.6
					C194.9,6.6,194.7,7.2,194.7,8.1"/>
			</g>
		</g>
	</g>
</g>
</svg>
